<?xml version="1.0" encoding="UTF-8" standalone="no"?>
<!DOCTYPE svg PUBLIC "-//W3C//DTD SVG 1.1//EN"
 "http://www.w3.org/Graphics/SVG/1.1/DTD/svg11.dtd">
<!-- Generated by graphviz version 2.40.1 (20161225.0304)
 -->
<!-- Title: %3 Pages: 1 -->
<svg width="1407pt" height="632pt"
 viewBox="0.00 0.00 1406.81 631.96" xmlns="http://www.w3.org/2000/svg" xmlns:xlink="http://www.w3.org/1999/xlink">
<g id="graph0" class="graph" transform="scale(1 1) rotate(0) translate(4 627.9609)">
<title>%3</title>
<polygon fill="#ffffff" stroke="transparent" points="-4,4 -4,-627.9609 1402.8125,-627.9609 1402.8125,4 -4,4"/>
<!-- 1 -->
<g id="node1" class="node">
<title>1</title>
<g id="a_node1"><a xlink:title="/usr/local/lib/python2.7/site&#45;packages/numpy/core/__init__.py">
<polygon fill="#0d1074" stroke="#0d1074" points="122.5612,-53.9941 16.3099,-53.9941 16.3099,-.002 122.5612,-.002 122.5612,-53.9941"/>
<text text-anchor="middle" x="69.4355" y="-41.9961" font-family="Arial" font-size="10.00" fill="#ffffff">__init__:1:&lt;module&gt;</text>
<text text-anchor="middle" x="69.4355" y="-30.4971" font-family="Arial" font-size="10.00" fill="#ffffff">0.83%</text>
<text text-anchor="middle" x="69.4355" y="-18.998" font-family="Arial" font-size="10.00" fill="#ffffff">(0.40%)</text>
<text text-anchor="middle" x="69.4355" y="-7.499" font-family="Arial" font-size="10.00" fill="#ffffff">1×</text>
</a>
</g>
</g>
<!-- 23 -->
<g id="node2" class="node">
<title>23</title>
<g id="a_node2"><a xlink:title="/usr/local/lib/python2.7/site&#45;packages/numpy/__init__.py">
<polygon fill="#0d1274" stroke="#0d1274" points="128.1839,-433.9707 10.6872,-433.9707 10.6872,-379.9785 128.1839,-379.9785 128.1839,-433.9707"/>
<text text-anchor="middle" x="69.4355" y="-421.9727" font-family="Arial" font-size="10.00" fill="#ffffff">__init__:106:&lt;module&gt;</text>
<text text-anchor="middle" x="69.4355" y="-410.4736" font-family="Arial" font-size="10.00" fill="#ffffff">1.24%</text>
<text text-anchor="middle" x="69.4355" y="-398.9746" font-family="Arial" font-size="10.00" fill="#ffffff">(0.04%)</text>
<text text-anchor="middle" x="69.4355" y="-387.4756" font-family="Arial" font-size="10.00" fill="#ffffff">1×</text>
</a>
</g>
</g>
<!-- 31 -->
<g id="node3" class="node">
<title>31</title>
<g id="a_node3"><a xlink:title="/usr/local/lib/python2.7/site&#45;packages/numpy/add_newdocs.py">
<polygon fill="#0d1174" stroke="#0d1174" points="138.8067,-338.9766 .0644,-338.9766 .0644,-284.9844 138.8067,-284.9844 138.8067,-338.9766"/>
<text text-anchor="middle" x="69.4355" y="-326.9785" font-family="Arial" font-size="10.00" fill="#ffffff">add_newdocs:10:&lt;module&gt;</text>
<text text-anchor="middle" x="69.4355" y="-315.4795" font-family="Arial" font-size="10.00" fill="#ffffff">0.96%</text>
<text text-anchor="middle" x="69.4355" y="-303.9805" font-family="Arial" font-size="10.00" fill="#ffffff">(0.00%)</text>
<text text-anchor="middle" x="69.4355" y="-292.4814" font-family="Arial" font-size="10.00" fill="#ffffff">1×</text>
</a>
</g>
</g>
<!-- 23&#45;&gt;31 -->
<g id="edge1" class="edge">
<title>23&#45;&gt;31</title>
<path fill="none" stroke="#0d1174" stroke-width=".5" d="M69.4355,-379.7531C69.4355,-368.2261 69.4355,-354.7376 69.4355,-342.8425"/>
<polygon fill="#0d1174" stroke="#0d1174" stroke-width=".5" points="70.6606,-342.7059 69.4355,-339.206 68.2106,-342.706 70.6606,-342.7059"/>
<text text-anchor="middle" x="83.6128" y="-362.9766" font-family="Arial" font-size="10.00" fill="#0d1174">0.96%</text>
<text text-anchor="middle" x="83.6128" y="-351.4775" font-family="Arial" font-size="10.00" fill="#0d1174">1×</text>
</g>
<!-- 30 -->
<g id="node4" class="node">
<title>30</title>
<g id="a_node4"><a xlink:title="/usr/local/lib/python2.7/site&#45;packages/numpy/lib/__init__.py">
<polygon fill="#0d1174" stroke="#0d1174" points="122.5612,-243.9824 16.3099,-243.9824 16.3099,-189.9902 122.5612,-189.9902 122.5612,-243.9824"/>
<text text-anchor="middle" x="69.4355" y="-231.9844" font-family="Arial" font-size="10.00" fill="#ffffff">__init__:1:&lt;module&gt;</text>
<text text-anchor="middle" x="69.4355" y="-220.4854" font-family="Arial" font-size="10.00" fill="#ffffff">0.94%</text>
<text text-anchor="middle" x="69.4355" y="-208.9863" font-family="Arial" font-size="10.00" fill="#ffffff">(0.04%)</text>
<text text-anchor="middle" x="69.4355" y="-197.4873" font-family="Arial" font-size="10.00" fill="#ffffff">1×</text>
</a>
</g>
</g>
<!-- 31&#45;&gt;30 -->
<g id="edge3" class="edge">
<title>31&#45;&gt;30</title>
<path fill="none" stroke="#0d1174" stroke-width=".5" d="M69.4355,-284.759C69.4355,-273.2319 69.4355,-259.7435 69.4355,-247.8483"/>
<polygon fill="#0d1174" stroke="#0d1174" stroke-width=".5" points="70.6606,-247.7118 69.4355,-244.2118 68.2106,-247.7118 70.6606,-247.7118"/>
<text text-anchor="middle" x="83.6128" y="-267.9824" font-family="Arial" font-size="10.00" fill="#0d1174">0.94%</text>
<text text-anchor="middle" x="83.6128" y="-256.4834" font-family="Arial" font-size="10.00" fill="#0d1174">1×</text>
</g>
<!-- 374 -->
<g id="node5" class="node">
<title>374</title>
<g id="a_node5"><a xlink:title="/usr/local/lib/python2.7/site&#45;packages/numpy/lib/type_check.py">
<polygon fill="#0d1074" stroke="#0d1074" points="130.6173,-148.9883 8.2538,-148.9883 8.2538,-94.9961 130.6173,-94.9961 130.6173,-148.9883"/>
<text text-anchor="middle" x="69.4355" y="-136.9902" font-family="Arial" font-size="10.00" fill="#ffffff">type_check:3:&lt;module&gt;</text>
<text text-anchor="middle" x="69.4355" y="-125.4912" font-family="Arial" font-size="10.00" fill="#ffffff">0.83%</text>
<text text-anchor="middle" x="69.4355" y="-113.9922" font-family="Arial" font-size="10.00" fill="#ffffff">(0.00%)</text>
<text text-anchor="middle" x="69.4355" y="-102.4932" font-family="Arial" font-size="10.00" fill="#ffffff">1×</text>
</a>
</g>
</g>
<!-- 30&#45;&gt;374 -->
<g id="edge2" class="edge">
<title>30&#45;&gt;374</title>
<path fill="none" stroke="#0d1074" stroke-width=".5" d="M69.4355,-189.7648C69.4355,-178.2378 69.4355,-164.7494 69.4355,-152.8542"/>
<polygon fill="#0d1074" stroke="#0d1074" stroke-width=".5" points="70.6606,-152.7176 69.4355,-149.2177 68.2106,-152.7177 70.6606,-152.7176"/>
<text text-anchor="middle" x="83.6128" y="-172.9883" font-family="Arial" font-size="10.00" fill="#0d1074">0.83%</text>
<text text-anchor="middle" x="83.6128" y="-161.4893" font-family="Arial" font-size="10.00" fill="#0d1074">1×</text>
</g>
<!-- 374&#45;&gt;1 -->
<g id="edge24" class="edge">
<title>374&#45;&gt;1</title>
<path fill="none" stroke="#0d1074" stroke-width=".5" d="M69.4355,-94.7707C69.4355,-83.2436 69.4355,-69.7552 69.4355,-57.86"/>
<polygon fill="#0d1074" stroke="#0d1074" stroke-width=".5" points="70.6606,-57.7235 69.4355,-54.2235 68.2106,-57.7236 70.6606,-57.7235"/>
<text text-anchor="middle" x="83.6128" y="-77.9941" font-family="Arial" font-size="10.00" fill="#0d1074">0.83%</text>
<text text-anchor="middle" x="83.6128" y="-66.4951" font-family="Arial" font-size="10.00" fill="#0d1074">1×</text>
</g>
<!-- 53 -->
<g id="node6" class="node">
<title>53</title>
<g id="a_node6"><a xlink:title="crsmatrix.py">
<polygon fill="#0d327d" stroke="#0d327d" points="338.2954,-528.9648 198.5757,-528.9648 198.5757,-474.9727 338.2954,-474.9727 338.2954,-528.9648"/>
<text text-anchor="middle" x="268.4355" y="-516.9668" font-family="Arial" font-size="10.00" fill="#ffffff">crsmatrix:104:from_mm_file</text>
<text text-anchor="middle" x="268.4355" y="-505.4678" font-family="Arial" font-size="10.00" fill="#ffffff">8.33%</text>
<text text-anchor="middle" x="268.4355" y="-493.9688" font-family="Arial" font-size="10.00" fill="#ffffff">(5.63%)</text>
<text text-anchor="middle" x="268.4355" y="-482.4697" font-family="Arial" font-size="10.00" fill="#ffffff">1×</text>
</a>
</g>
</g>
<!-- 499 -->
<g id="node7" class="node">
<title>499</title>
<g id="a_node7"><a xlink:title="~">
<polygon fill="#0d1174" stroke="#0d1174" points="303.0941,-433.9707 137.777,-433.9707 137.777,-379.9785 303.0941,-379.9785 303.0941,-433.9707"/>
<text text-anchor="middle" x="220.4355" y="-421.9727" font-family="Arial" font-size="10.00" fill="#ffffff">~:0:&lt;method &#39;sort&#39; of &#39;list&#39; objects&gt;</text>
<text text-anchor="middle" x="220.4355" y="-410.4736" font-family="Arial" font-size="10.00" fill="#ffffff">1.08%</text>
<text text-anchor="middle" x="220.4355" y="-398.9746" font-family="Arial" font-size="10.00" fill="#ffffff">(1.08%)</text>
<text text-anchor="middle" x="220.4355" y="-387.4756" font-family="Arial" font-size="10.00" fill="#ffffff">1×</text>
</a>
</g>
</g>
<!-- 53&#45;&gt;499 -->
<g id="edge4" class="edge">
<title>53&#45;&gt;499</title>
<path fill="none" stroke="#0d1174" stroke-width=".5" d="M254.6807,-474.7472C248.8059,-463.1208 241.9229,-449.4991 235.8747,-437.5293"/>
<polygon fill="#0d1174" stroke="#0d1174" stroke-width=".5" points="236.8643,-436.7715 234.1924,-434.2001 234.6776,-437.8764 236.8643,-436.7715"/>
<text text-anchor="middle" x="264.6128" y="-457.9707" font-family="Arial" font-size="10.00" fill="#0d1174">1.08%</text>
<text text-anchor="middle" x="264.6128" y="-446.4717" font-family="Arial" font-size="10.00" fill="#0d1174">1×</text>
</g>
<!-- 583 -->
<g id="node8" class="node">
<title>583</title>
<g id="a_node8"><a xlink:title="~">
<polygon fill="#0d1274" stroke="#0d1274" points="360.7933,-243.9824 178.0778,-243.9824 178.0778,-189.9902 360.7933,-189.9902 360.7933,-243.9824"/>
<text text-anchor="middle" x="269.4355" y="-231.9844" font-family="Arial" font-size="10.00" fill="#ffffff">~:0:&lt;method &#39;append&#39; of &#39;list&#39; objects&gt;</text>
<text text-anchor="middle" x="269.4355" y="-220.4854" font-family="Arial" font-size="10.00" fill="#ffffff">1.25%</text>
<text text-anchor="middle" x="269.4355" y="-208.9863" font-family="Arial" font-size="10.00" fill="#ffffff">(1.25%)</text>
<text text-anchor="middle" x="269.4355" y="-197.4873" font-family="Arial" font-size="10.00" fill="#ffffff">1081983×</text>
</a>
</g>
</g>
<!-- 53&#45;&gt;583 -->
<g id="edge5" class="edge">
<title>53&#45;&gt;583</title>
<path fill="none" stroke="#0d0f73" stroke-width=".5" d="M288.2612,-474.9611C295.8391,-463.0261 303.5817,-448.4377 307.4355,-433.9727 324.865,-368.5529 300.0192,-289.8522 283.0304,-247.5197"/>
<polygon fill="#0d0f73" stroke="#0d0f73" stroke-width=".5" points="284.0683,-246.8196 281.6173,-244.0369 281.7981,-247.7407 284.0683,-246.8196"/>
<text text-anchor="middle" x="333.04" y="-362.9766" font-family="Arial" font-size="10.00" fill="#0d0f73">0.52%</text>
<text text-anchor="middle" x="333.04" y="-351.4775" font-family="Arial" font-size="10.00" fill="#0d0f73">459218×</text>
</g>
<!-- 54 -->
<g id="node9" class="node">
<title>54</title>
<g id="a_node9"><a xlink:title="gmres_example.py">
<polygon fill="#ff0000" stroke="#ff0000" points="339.6741,-623.959 197.197,-623.959 197.197,-569.9668 339.6741,-569.9668 339.6741,-623.959"/>
<text text-anchor="middle" x="268.4355" y="-611.9609" font-family="Arial" font-size="10.00" fill="#ffffff">gmres_example:1:&lt;module&gt;</text>
<text text-anchor="middle" x="268.4355" y="-600.4619" font-family="Arial" font-size="10.00" fill="#ffffff">100.00%</text>
<text text-anchor="middle" x="268.4355" y="-588.9629" font-family="Arial" font-size="10.00" fill="#ffffff">(0.21%)</text>
<text text-anchor="middle" x="268.4355" y="-577.4639" font-family="Arial" font-size="10.00" fill="#ffffff">1×</text>
</a>
</g>
</g>
<!-- 54&#45;&gt;53 -->
<g id="edge6" class="edge">
<title>54&#45;&gt;53</title>
<path fill="none" stroke="#0d327d" stroke-width=".5" d="M268.4355,-569.7414C268.4355,-558.2143 268.4355,-544.7259 268.4355,-532.8308"/>
<polygon fill="#0d327d" stroke="#0d327d" stroke-width=".5" points="269.6606,-532.6942 268.4355,-529.1942 267.2106,-532.6943 269.6606,-532.6942"/>
<text text-anchor="middle" x="282.6128" y="-552.9648" font-family="Arial" font-size="10.00" fill="#0d327d">8.33%</text>
<text text-anchor="middle" x="282.6128" y="-541.4658" font-family="Arial" font-size="10.00" fill="#0d327d">1×</text>
</g>
<!-- 320 -->
<g id="node10" class="node">
<title>320</title>
<g id="a_node10"><a xlink:title="gmrescrs.py">
<polygon fill="#f05f02" stroke="#f05f02" points="601.0733,-528.9648 503.7978,-528.9648 503.7978,-474.9727 601.0733,-474.9727 601.0733,-528.9648"/>
<text text-anchor="middle" x="552.4355" y="-516.9668" font-family="Arial" font-size="10.00" fill="#ffffff">gmrescrs:22:solve</text>
<text text-anchor="middle" x="552.4355" y="-505.4678" font-family="Arial" font-size="10.00" fill="#ffffff">90.22%</text>
<text text-anchor="middle" x="552.4355" y="-493.9688" font-family="Arial" font-size="10.00" fill="#ffffff">(0.42%)</text>
<text text-anchor="middle" x="552.4355" y="-482.4697" font-family="Arial" font-size="10.00" fill="#ffffff">1×</text>
</a>
</g>
</g>
<!-- 54&#45;&gt;320 -->
<g id="edge7" class="edge">
<title>54&#45;&gt;320</title>
<path fill="none" stroke="#f05f02" stroke-width="3.61" d="M339.7342,-573.1145C387.4409,-557.1572 449.4418,-536.4188 494.183,-521.4534"/>
<polygon fill="#f05f02" stroke="#f05f02" stroke-width="3.61" points="495.5024,-524.5183 503.457,-518.3514 493.3929,-518.2117 495.5024,-524.5183"/>
<text text-anchor="middle" x="461.3936" y="-552.9648" font-family="Arial" font-size="10.00" fill="#f05f02">90.22%</text>
<text text-anchor="middle" x="461.3936" y="-541.4658" font-family="Arial" font-size="10.00" fill="#f05f02">1×</text>
</g>
<!-- 407 -->
<g id="node11" class="node">
<title>407</title>
<g id="a_node11"><a xlink:title="gmrescrs.py">
<polygon fill="#0d1274" stroke="#0d1274" points="185.6449,-528.9648 73.2262,-528.9648 73.2262,-474.9727 185.6449,-474.9727 185.6449,-528.9648"/>
<text text-anchor="middle" x="129.4355" y="-516.9668" font-family="Arial" font-size="10.00" fill="#ffffff">gmrescrs:1:&lt;module&gt;</text>
<text text-anchor="middle" x="129.4355" y="-505.4678" font-family="Arial" font-size="10.00" fill="#ffffff">1.24%</text>
<text text-anchor="middle" x="129.4355" y="-493.9688" font-family="Arial" font-size="10.00" fill="#ffffff">(0.00%)</text>
<text text-anchor="middle" x="129.4355" y="-482.4697" font-family="Arial" font-size="10.00" fill="#ffffff">1×</text>
</a>
</g>
</g>
<!-- 54&#45;&gt;407 -->
<g id="edge8" class="edge">
<title>54&#45;&gt;407</title>
<path fill="none" stroke="#0d1274" stroke-width=".5" d="M228.6037,-569.7414C211.0098,-557.7175 190.2931,-543.5595 172.357,-531.3017"/>
<polygon fill="#0d1274" stroke="#0d1274" stroke-width=".5" points="172.8541,-530.1577 169.2732,-529.1942 171.4717,-532.1805 172.8541,-530.1577"/>
<text text-anchor="middle" x="230.6128" y="-552.9648" font-family="Arial" font-size="10.00" fill="#0d1274">1.24%</text>
<text text-anchor="middle" x="230.6128" y="-541.4658" font-family="Arial" font-size="10.00" fill="#0d1274">1×</text>
</g>
<!-- 100 -->
<g id="node16" class="node">
<title>100</title>
<g id="a_node16"><a xlink:title="gmrescrs.py">
<polygon fill="#e69804" stroke="#e69804" points="960.2677,-433.9707 826.6034,-433.9707 826.6034,-379.9785 960.2677,-379.9785 960.2677,-433.9707"/>
<text text-anchor="middle" x="893.4355" y="-421.9727" font-family="Arial" font-size="10.00" fill="#ffffff">gmrescrs:66:next_iteration</text>
<text text-anchor="middle" x="893.4355" y="-410.4736" font-family="Arial" font-size="10.00" fill="#ffffff">83.68%</text>
<text text-anchor="middle" x="893.4355" y="-398.9746" font-family="Arial" font-size="10.00" fill="#ffffff">(0.51%)</text>
<text text-anchor="middle" x="893.4355" y="-387.4756" font-family="Arial" font-size="10.00" fill="#ffffff">48×</text>
</a>
</g>
</g>
<!-- 320&#45;&gt;100 -->
<g id="edge21" class="edge">
<title>320&#45;&gt;100</title>
<path fill="none" stroke="#e69804" stroke-width="3.35" d="M601.2925,-488.3584C657.7521,-472.6302 751.3443,-446.5577 817.3565,-428.1683"/>
<polygon fill="#e69804" stroke="#e69804" stroke-width="3.35" points="818.5698,-431.1367 826.4813,-425.6264 816.8604,-425.0003 818.5698,-431.1367"/>
<text text-anchor="middle" x="780.3936" y="-457.9707" font-family="Arial" font-size="10.00" fill="#e69804">83.68%</text>
<text text-anchor="middle" x="780.3936" y="-446.4717" font-family="Arial" font-size="10.00" fill="#e69804">48×</text>
</g>
<!-- 175 -->
<g id="node22" class="node">
<title>175</title>
<g id="a_node22"><a xlink:title="gmrescrs.py">
<polygon fill="#0d287b" stroke="#0d287b" points="617.9746,-433.9707 486.8965,-433.9707 486.8965,-379.9785 617.9746,-379.9785 617.9746,-433.9707"/>
<text text-anchor="middle" x="552.4355" y="-421.9727" font-family="Arial" font-size="10.00" fill="#ffffff">gmrescrs:51:first_iteration</text>
<text text-anchor="middle" x="552.4355" y="-410.4736" font-family="Arial" font-size="10.00" fill="#ffffff">6.10%</text>
<text text-anchor="middle" x="552.4355" y="-398.9746" font-family="Arial" font-size="10.00" fill="#ffffff">(0.01%)</text>
<text text-anchor="middle" x="552.4355" y="-387.4756" font-family="Arial" font-size="10.00" fill="#ffffff">2×</text>
</a>
</g>
</g>
<!-- 320&#45;&gt;175 -->
<g id="edge22" class="edge">
<title>320&#45;&gt;175</title>
<path fill="none" stroke="#0d287b" stroke-width=".5" d="M552.4355,-474.7472C552.4355,-463.2202 552.4355,-449.7318 552.4355,-437.8366"/>
<polygon fill="#0d287b" stroke="#0d287b" stroke-width=".5" points="553.6606,-437.7001 552.4355,-434.2001 551.2106,-437.7001 553.6606,-437.7001"/>
<text text-anchor="middle" x="566.6128" y="-457.9707" font-family="Arial" font-size="10.00" fill="#0d287b">6.10%</text>
<text text-anchor="middle" x="566.6128" y="-446.4717" font-family="Arial" font-size="10.00" fill="#0d287b">2×</text>
</g>
<!-- 407&#45;&gt;23 -->
<g id="edge25" class="edge">
<title>407&#45;&gt;23</title>
<path fill="none" stroke="#0d1274" stroke-width=".5" d="M112.242,-474.7472C104.8357,-463.0215 96.1476,-449.2661 88.5408,-437.2228"/>
<polygon fill="#0d1274" stroke="#0d1274" stroke-width=".5" points="89.5365,-436.5051 86.6316,-434.2001 87.465,-437.8135 89.5365,-436.5051"/>
<text text-anchor="middle" x="121.6128" y="-457.9707" font-family="Arial" font-size="10.00" fill="#0d1274">1.24%</text>
<text text-anchor="middle" x="121.6128" y="-446.4717" font-family="Arial" font-size="10.00" fill="#0d1274">1×</text>
</g>
<!-- 66 -->
<g id="node12" class="node">
<title>66</title>
<g id="a_node12"><a xlink:title="/usr/local/lib/python2.7/site&#45;packages/numpy/linalg/linalg.py">
<polygon fill="#0d1f78" stroke="#0d1f78" points="928.9196,-338.9766 857.9515,-338.9766 857.9515,-284.9844 928.9196,-284.9844 928.9196,-338.9766"/>
<text text-anchor="middle" x="893.4355" y="-326.9785" font-family="Arial" font-size="10.00" fill="#ffffff">linalg:617:qr</text>
<text text-anchor="middle" x="893.4355" y="-315.4795" font-family="Arial" font-size="10.00" fill="#ffffff">4.32%</text>
<text text-anchor="middle" x="893.4355" y="-303.9805" font-family="Arial" font-size="10.00" fill="#ffffff">(0.71%)</text>
<text text-anchor="middle" x="893.4355" y="-292.4814" font-family="Arial" font-size="10.00" fill="#ffffff">48×</text>
</a>
</g>
</g>
<!-- 192 -->
<g id="node13" class="node">
<title>192</title>
<g id="a_node13"><a xlink:title="/usr/local/lib/python2.7/site&#45;packages/numpy/linalg/linalg.py">
<polygon fill="#0d1274" stroke="#0d1274" points="851.219,-243.9824 679.6521,-243.9824 679.6521,-189.9902 851.219,-189.9902 851.219,-243.9824"/>
<text text-anchor="middle" x="765.4355" y="-231.9844" font-family="Arial" font-size="10.00" fill="#ffffff">linalg:180:_fastCopyAndTranspose</text>
<text text-anchor="middle" x="765.4355" y="-220.4854" font-family="Arial" font-size="10.00" fill="#ffffff">1.28%</text>
<text text-anchor="middle" x="765.4355" y="-208.9863" font-family="Arial" font-size="10.00" fill="#ffffff">(0.01%)</text>
<text text-anchor="middle" x="765.4355" y="-197.4873" font-family="Arial" font-size="10.00" fill="#ffffff">144×</text>
</a>
</g>
</g>
<!-- 66&#45;&gt;192 -->
<g id="edge9" class="edge">
<title>66&#45;&gt;192</title>
<path fill="none" stroke="#0d1274" stroke-width=".5" d="M858.1201,-285.7714C841.6115,-273.5197 821.8924,-258.8853 804.8948,-246.2707"/>
<polygon fill="#0d1274" stroke="#0d1274" stroke-width=".5" points="805.514,-245.2047 801.9733,-244.1025 804.0539,-247.1721 805.514,-245.2047"/>
<text text-anchor="middle" x="858.6128" y="-267.9824" font-family="Arial" font-size="10.00" fill="#0d1274">1.28%</text>
<text text-anchor="middle" x="858.6128" y="-256.4834" font-family="Arial" font-size="10.00" fill="#0d1274">144×</text>
</g>
<!-- 521 -->
<g id="node14" class="node">
<title>521</title>
<g id="a_node14"><a xlink:title="~">
<polygon fill="#0d1274" stroke="#0d1274" points="1041.1359,-243.9824 859.7352,-243.9824 859.7352,-189.9902 1041.1359,-189.9902 1041.1359,-243.9824"/>
<text text-anchor="middle" x="950.4355" y="-231.9844" font-family="Arial" font-size="10.00" fill="#ffffff">~:0:&lt;numpy.linalg.lapack_lite.dgeqrf&gt;</text>
<text text-anchor="middle" x="950.4355" y="-220.4854" font-family="Arial" font-size="10.00" fill="#ffffff">1.17%</text>
<text text-anchor="middle" x="950.4355" y="-208.9863" font-family="Arial" font-size="10.00" fill="#ffffff">(1.17%)</text>
<text text-anchor="middle" x="950.4355" y="-197.4873" font-family="Arial" font-size="10.00" fill="#ffffff">96×</text>
</a>
</g>
</g>
<!-- 66&#45;&gt;521 -->
<g id="edge10" class="edge">
<title>66&#45;&gt;521</title>
<path fill="none" stroke="#0d1274" stroke-width=".5" d="M909.7695,-284.759C916.8054,-273.0332 925.0591,-259.2778 932.2855,-247.2345"/>
<polygon fill="#0d1274" stroke="#0d1274" stroke-width=".5" points="933.3488,-247.8433 934.0992,-244.2118 931.248,-246.5827 933.3488,-247.8433"/>
<text text-anchor="middle" x="942.6128" y="-267.9824" font-family="Arial" font-size="10.00" fill="#0d1274">1.17%</text>
<text text-anchor="middle" x="942.6128" y="-256.4834" font-family="Arial" font-size="10.00" fill="#0d1274">96×</text>
</g>
<!-- 547 -->
<g id="node15" class="node">
<title>547</title>
<g id="a_node15"><a xlink:title="~">
<polygon fill="#0d1174" stroke="#0d1174" points="1231.1877,-243.9824 1049.6834,-243.9824 1049.6834,-189.9902 1231.1877,-189.9902 1231.1877,-243.9824"/>
<text text-anchor="middle" x="1140.4355" y="-231.9844" font-family="Arial" font-size="10.00" fill="#ffffff">~:0:&lt;numpy.linalg.lapack_lite.dorgqr&gt;</text>
<text text-anchor="middle" x="1140.4355" y="-220.4854" font-family="Arial" font-size="10.00" fill="#ffffff">1.07%</text>
<text text-anchor="middle" x="1140.4355" y="-208.9863" font-family="Arial" font-size="10.00" fill="#ffffff">(1.07%)</text>
<text text-anchor="middle" x="1140.4355" y="-197.4873" font-family="Arial" font-size="10.00" fill="#ffffff">96×</text>
</a>
</g>
</g>
<!-- 66&#45;&gt;547 -->
<g id="edge11" class="edge">
<title>66&#45;&gt;547</title>
<path fill="none" stroke="#0d1174" stroke-width=".5" d="M928.9048,-287.3306C930.417,-286.5064 931.9308,-285.7196 933.4355,-284.9824 939.294,-282.1123 998.9639,-262.5854 1052.7404,-245.1896"/>
<polygon fill="#0d1174" stroke="#0d1174" stroke-width=".5" points="1053.3202,-246.2897 1056.2734,-244.0471 1052.5663,-243.9585 1053.3202,-246.2897"/>
<text text-anchor="middle" x="1036.6128" y="-267.9824" font-family="Arial" font-size="10.00" fill="#0d1174">1.07%</text>
<text text-anchor="middle" x="1036.6128" y="-256.4834" font-family="Arial" font-size="10.00" fill="#0d1174">96×</text>
</g>
<!-- 454 -->
<g id="node23" class="node">
<title>454</title>
<g id="a_node23"><a xlink:title="~">
<polygon fill="#0d1274" stroke="#0d1274" points="892.4809,-148.9883 638.3902,-148.9883 638.3902,-94.9961 892.4809,-94.9961 892.4809,-148.9883"/>
<text text-anchor="middle" x="765.4355" y="-136.9902" font-family="Arial" font-size="10.00" fill="#ffffff">~:0:&lt;numpy.core.multiarray._fastCopyAndTranspose&gt;</text>
<text text-anchor="middle" x="765.4355" y="-125.4912" font-family="Arial" font-size="10.00" fill="#ffffff">1.26%</text>
<text text-anchor="middle" x="765.4355" y="-113.9922" font-family="Arial" font-size="10.00" fill="#ffffff">(1.26%)</text>
<text text-anchor="middle" x="765.4355" y="-102.4932" font-family="Arial" font-size="10.00" fill="#ffffff">144×</text>
</a>
</g>
</g>
<!-- 192&#45;&gt;454 -->
<g id="edge20" class="edge">
<title>192&#45;&gt;454</title>
<path fill="none" stroke="#0d1274" stroke-width=".5" d="M765.4355,-189.7648C765.4355,-178.2378 765.4355,-164.7494 765.4355,-152.8542"/>
<polygon fill="#0d1274" stroke="#0d1274" stroke-width=".5" points="766.6606,-152.7176 765.4355,-149.2177 764.2106,-152.7177 766.6606,-152.7176"/>
<text text-anchor="middle" x="779.6128" y="-172.9883" font-family="Arial" font-size="10.00" fill="#0d1274">1.26%</text>
<text text-anchor="middle" x="779.6128" y="-161.4893" font-family="Arial" font-size="10.00" fill="#0d1274">144×</text>
</g>
<!-- 100&#45;&gt;66 -->
<g id="edge12" class="edge">
<title>100&#45;&gt;66</title>
<path fill="none" stroke="#0d1f78" stroke-width=".5" d="M893.4355,-379.7531C893.4355,-368.2261 893.4355,-354.7376 893.4355,-342.8425"/>
<polygon fill="#0d1f78" stroke="#0d1f78" stroke-width=".5" points="894.6606,-342.7059 893.4355,-339.206 892.2106,-342.706 894.6606,-342.7059"/>
<text text-anchor="middle" x="907.6128" y="-362.9766" font-family="Arial" font-size="10.00" fill="#0d1f78">4.32%</text>
<text text-anchor="middle" x="907.6128" y="-351.4775" font-family="Arial" font-size="10.00" fill="#0d1f78">48×</text>
</g>
<!-- 174 -->
<g id="node17" class="node">
<title>174</title>
<g id="a_node17"><a xlink:title="crsmatrix.py">
<polygon fill="#e4a304" stroke="#e4a304" points="627.3149,-338.9766 477.5562,-338.9766 477.5562,-284.9844 627.3149,-284.9844 627.3149,-338.9766"/>
<text text-anchor="middle" x="552.4355" y="-326.9785" font-family="Arial" font-size="10.00" fill="#ffffff">crsmatrix:162:mult_left_vector</text>
<text text-anchor="middle" x="552.4355" y="-315.4795" font-family="Arial" font-size="10.00" fill="#ffffff">82.26%</text>
<text text-anchor="middle" x="552.4355" y="-303.9805" font-family="Arial" font-size="10.00" fill="#ffffff">(65.01%)</text>
<text text-anchor="middle" x="552.4355" y="-292.4814" font-family="Arial" font-size="10.00" fill="#ffffff">52×</text>
</a>
</g>
</g>
<!-- 100&#45;&gt;174 -->
<g id="edge13" class="edge">
<title>100&#45;&gt;174</title>
<path fill="none" stroke="#dbd105" stroke-width="3.05" d="M826.4718,-388.3202C771.8428,-373.1019 694.3916,-351.5259 635.7578,-335.192"/>
<polygon fill="#dbd105" stroke="#dbd105" stroke-width="3.05" points="636.4465,-332.223 627.2484,-332.8215 634.8122,-338.0896 636.4465,-332.223"/>
<text text-anchor="middle" x="780.3936" y="-362.9766" font-family="Arial" font-size="10.00" fill="#dbd105">76.18%</text>
<text text-anchor="middle" x="780.3936" y="-351.4775" font-family="Arial" font-size="10.00" fill="#dbd105">48×</text>
</g>
<!-- 343 -->
<g id="node18" class="node">
<title>343</title>
<g id="a_node18"><a xlink:title="/usr/local/lib/python2.7/site&#45;packages/numpy/matrixlib/defmatrix.py">
<polygon fill="#0d1074" stroke="#0d1074" points="1055.1595,-338.9766 937.7116,-338.9766 937.7116,-284.9844 1055.1595,-284.9844 1055.1595,-338.9766"/>
<text text-anchor="middle" x="996.4355" y="-326.9785" font-family="Arial" font-size="10.00" fill="#ffffff">defmatrix:340:__mul__</text>
<text text-anchor="middle" x="996.4355" y="-315.4795" font-family="Arial" font-size="10.00" fill="#ffffff">0.77%</text>
<text text-anchor="middle" x="996.4355" y="-303.9805" font-family="Arial" font-size="10.00" fill="#ffffff">(0.02%)</text>
<text text-anchor="middle" x="996.4355" y="-292.4814" font-family="Arial" font-size="10.00" fill="#ffffff">748×</text>
</a>
</g>
</g>
<!-- 100&#45;&gt;343 -->
<g id="edge14" class="edge">
<title>100&#45;&gt;343</title>
<path fill="none" stroke="#0d1074" stroke-width=".5" d="M922.9512,-379.7531C935.8807,-367.8286 951.0861,-353.8051 964.3005,-341.6178"/>
<polygon fill="#0d1074" stroke="#0d1074" stroke-width=".5" points="965.1732,-342.4794 966.9156,-339.206 963.5122,-340.6783 965.1732,-342.4794"/>
<text text-anchor="middle" x="970.6128" y="-362.9766" font-family="Arial" font-size="10.00" fill="#0d1074">0.77%</text>
<text text-anchor="middle" x="970.6128" y="-351.4775" font-family="Arial" font-size="10.00" fill="#0d1074">744×</text>
</g>
<!-- 570 -->
<g id="node19" class="node">
<title>570</title>
<g id="a_node19"><a xlink:title="~">
<polygon fill="#0d1274" stroke="#0d1274" points="1264.2757,-338.9766 1064.5954,-338.9766 1064.5954,-284.9844 1264.2757,-284.9844 1264.2757,-338.9766"/>
<text text-anchor="middle" x="1164.4355" y="-326.9785" font-family="Arial" font-size="10.00" fill="#ffffff">~:0:&lt;numpy.core.multiarray.concatenate&gt;</text>
<text text-anchor="middle" x="1164.4355" y="-315.4795" font-family="Arial" font-size="10.00" fill="#ffffff">1.23%</text>
<text text-anchor="middle" x="1164.4355" y="-303.9805" font-family="Arial" font-size="10.00" fill="#ffffff">(1.23%)</text>
<text text-anchor="middle" x="1164.4355" y="-292.4814" font-family="Arial" font-size="10.00" fill="#ffffff">96×</text>
</a>
</g>
</g>
<!-- 100&#45;&gt;570 -->
<g id="edge15" class="edge">
<title>100&#45;&gt;570</title>
<path fill="none" stroke="#0d1274" stroke-width=".5" d="M960.4243,-383.4929C997.6256,-370.4527 1044.1766,-354.1351 1083.4148,-340.3808"/>
<polygon fill="#0d1274" stroke="#0d1274" stroke-width=".5" points="1084.2909,-341.3719 1087.1886,-339.058 1083.4804,-339.0598 1084.2909,-341.3719"/>
<text text-anchor="middle" x="1074.6128" y="-362.9766" font-family="Arial" font-size="10.00" fill="#0d1274">1.23%</text>
<text text-anchor="middle" x="1074.6128" y="-351.4775" font-family="Arial" font-size="10.00" fill="#0d1274">96×</text>
</g>
<!-- 174&#45;&gt;583 -->
<g id="edge18" class="edge">
<title>174&#45;&gt;583</title>
<path fill="none" stroke="#0d1074" stroke-width=".5" d="M477.7104,-286.8976C439.6365,-274.1174 393.1934,-258.5279 353.8332,-245.316"/>
<polygon fill="#0d1074" stroke="#0d1074" stroke-width=".5" points="353.7547,-243.9975 350.0468,-244.045 352.975,-246.3201 353.7547,-243.9975"/>
<text text-anchor="middle" x="465.04" y="-267.9824" font-family="Arial" font-size="10.00" fill="#0d1074">0.72%</text>
<text text-anchor="middle" x="465.04" y="-256.4834" font-family="Arial" font-size="10.00" fill="#0d1074">621296×</text>
</g>
<!-- 438 -->
<g id="node20" class="node">
<title>438</title>
<g id="a_node20"><a xlink:title="~">
<polygon fill="#0d4382" stroke="#0d4382" points="591.0511,-243.9824 369.82,-243.9824 369.82,-189.9902 591.0511,-189.9902 591.0511,-243.9824"/>
<text text-anchor="middle" x="480.4355" y="-231.9844" font-family="Arial" font-size="10.00" fill="#ffffff">~:0:&lt;method &#39;item&#39; of &#39;numpy.ndarray&#39; objects&gt;</text>
<text text-anchor="middle" x="480.4355" y="-220.4854" font-family="Arial" font-size="10.00" fill="#ffffff">11.55%</text>
<text text-anchor="middle" x="480.4355" y="-208.9863" font-family="Arial" font-size="10.00" fill="#ffffff">(11.55%)</text>
<text text-anchor="middle" x="480.4355" y="-197.4873" font-family="Arial" font-size="10.00" fill="#ffffff">7752680×</text>
</a>
</g>
</g>
<!-- 174&#45;&gt;438 -->
<g id="edge16" class="edge">
<title>174&#45;&gt;438</title>
<path fill="none" stroke="#0d4382" stroke-width=".5" d="M531.8032,-284.759C522.9158,-273.0332 512.49,-259.2778 503.3619,-247.2345"/>
<polygon fill="#0d4382" stroke="#0d4382" stroke-width=".5" points="504.1613,-246.2612 501.0709,-244.2118 502.2088,-247.7411 504.1613,-246.2612"/>
<text text-anchor="middle" x="546.8208" y="-267.9824" font-family="Arial" font-size="10.00" fill="#0d4382">11.55%</text>
<text text-anchor="middle" x="546.8208" y="-256.4834" font-family="Arial" font-size="10.00" fill="#0d4382">7752680×</text>
</g>
<!-- 501 -->
<g id="node21" class="node">
<title>501</title>
<g id="a_node21"><a xlink:title="~">
<polygon fill="#0d2179" stroke="#0d2179" points="670.6497,-243.9824 600.2214,-243.9824 600.2214,-189.9902 670.6497,-189.9902 670.6497,-243.9824"/>
<text text-anchor="middle" x="635.4355" y="-231.9844" font-family="Arial" font-size="10.00" fill="#ffffff">~:0:&lt;range&gt;</text>
<text text-anchor="middle" x="635.4355" y="-220.4854" font-family="Arial" font-size="10.00" fill="#ffffff">4.67%</text>
<text text-anchor="middle" x="635.4355" y="-208.9863" font-family="Arial" font-size="10.00" fill="#ffffff">(4.67%)</text>
<text text-anchor="middle" x="635.4355" y="-197.4873" font-family="Arial" font-size="10.00" fill="#ffffff">622138×</text>
</a>
</g>
</g>
<!-- 174&#45;&gt;501 -->
<g id="edge17" class="edge">
<title>174&#45;&gt;501</title>
<path fill="none" stroke="#0d2179" stroke-width=".5" d="M576.22,-284.759C586.5521,-272.9338 598.6877,-259.0445 609.2738,-246.9287"/>
<polygon fill="#0d2179" stroke="#0d2179" stroke-width=".5" points="610.2672,-247.6535 611.6476,-244.2118 608.4222,-246.0415 610.2672,-247.6535"/>
<text text-anchor="middle" x="623.04" y="-267.9824" font-family="Arial" font-size="10.00" fill="#0d2179">4.66%</text>
<text text-anchor="middle" x="623.04" y="-256.4834" font-family="Arial" font-size="10.00" fill="#0d2179">621348×</text>
</g>
<!-- 342 -->
<g id="node24" class="node">
<title>342</title>
<g id="a_node24"><a xlink:title="~">
<polygon fill="#0d1174" stroke="#0d1174" points="1398.6896,-243.9824 1240.1815,-243.9824 1240.1815,-189.9902 1398.6896,-189.9902 1398.6896,-243.9824"/>
<text text-anchor="middle" x="1319.4355" y="-231.9844" font-family="Arial" font-size="10.00" fill="#ffffff">~:0:&lt;numpy.core.multiarray.dot&gt;</text>
<text text-anchor="middle" x="1319.4355" y="-220.4854" font-family="Arial" font-size="10.00" fill="#ffffff">1.04%</text>
<text text-anchor="middle" x="1319.4355" y="-208.9863" font-family="Arial" font-size="10.00" fill="#ffffff">(1.02%)</text>
<text text-anchor="middle" x="1319.4355" y="-197.4873" font-family="Arial" font-size="10.00" fill="#ffffff">1452×</text>
</a>
</g>
</g>
<!-- 343&#45;&gt;342 -->
<g id="edge23" class="edge">
<title>343&#45;&gt;342</title>
<path fill="none" stroke="#0d1074" stroke-width=".5" d="M1055.2289,-286.7381C1056.9772,-286.1292 1058.7155,-285.5423 1060.4355,-284.9824 1136.3971,-260.259 1158.4577,-265.3343 1235.4355,-243.9844 1235.7123,-243.9076 1235.9895,-243.8305 1236.2672,-243.7531"/>
<polygon fill="#0d1074" stroke="#0d1074" stroke-width=".5" points="1236.8625,-244.8582 1239.8991,-242.7299 1236.198,-242.5 1236.8625,-244.8582"/>
<text text-anchor="middle" x="1212.6128" y="-267.9824" font-family="Arial" font-size="10.00" fill="#0d1074">0.71%</text>
<text text-anchor="middle" x="1212.6128" y="-256.4834" font-family="Arial" font-size="10.00" fill="#0d1074">748×</text>
</g>
<!-- 175&#45;&gt;174 -->
<g id="edge19" class="edge">
<title>175&#45;&gt;174</title>
<path fill="none" stroke="#0d277b" stroke-width=".5" d="M552.4355,-379.7531C552.4355,-368.2261 552.4355,-354.7376 552.4355,-342.8425"/>
<polygon fill="#0d277b" stroke="#0d277b" stroke-width=".5" points="553.6606,-342.7059 552.4355,-339.206 551.2106,-342.706 553.6606,-342.7059"/>
<text text-anchor="middle" x="566.6128" y="-362.9766" font-family="Arial" font-size="10.00" fill="#0d277b">6.09%</text>
<text text-anchor="middle" x="566.6128" y="-351.4775" font-family="Arial" font-size="10.00" fill="#0d277b">4×</text>
</g>
</g>
</svg>
