<?xml version="1.0" encoding="UTF-8" standalone="no"?>
<!DOCTYPE svg PUBLIC "-//W3C//DTD SVG 1.1//EN"
 "http://www.w3.org/Graphics/SVG/1.1/DTD/svg11.dtd">
<!-- Generated by graphviz version 2.40.1 (20161225.0304)
 -->
<!-- Title: %3 Pages: 1 -->
<svg width="1229pt" height="537pt"
 viewBox="0.00 0.00 1228.78 536.97" xmlns="http://www.w3.org/2000/svg" xmlns:xlink="http://www.w3.org/1999/xlink">
<g id="graph0" class="graph" transform="scale(1 1) rotate(0) translate(4 532.9668)">
<title>%3</title>
<polygon fill="#ffffff" stroke="transparent" points="-4,4 -4,-532.9668 1224.7788,-532.9668 1224.7788,4 -4,4"/>
<!-- 53 -->
<g id="node1" class="node">
<title>53</title>
<g id="a_node1"><a xlink:title="crsmatrix.py">
<polygon fill="#0d1274" stroke="#0d1274" points="464.0386,-433.9707 324.3189,-433.9707 324.3189,-379.9785 464.0386,-379.9785 464.0386,-433.9707"/>
<text text-anchor="middle" x="394.1787" y="-421.9727" font-family="Arial" font-size="10.00" fill="#ffffff">crsmatrix:104:from_mm_file</text>
<text text-anchor="middle" x="394.1787" y="-410.4736" font-family="Arial" font-size="10.00" fill="#ffffff">1.23%</text>
<text text-anchor="middle" x="394.1787" y="-398.9746" font-family="Arial" font-size="10.00" fill="#ffffff">(0.85%)</text>
<text text-anchor="middle" x="394.1787" y="-387.4756" font-family="Arial" font-size="10.00" fill="#ffffff">1×</text>
</a>
</g>
</g>
<!-- 54 -->
<g id="node2" class="node">
<title>54</title>
<g id="a_node2"><a xlink:title="gmres_example.py">
<polygon fill="#ff0000" stroke="#ff0000" points="486.4172,-528.9648 343.9402,-528.9648 343.9402,-474.9727 486.4172,-474.9727 486.4172,-528.9648"/>
<text text-anchor="middle" x="415.1787" y="-516.9668" font-family="Arial" font-size="10.00" fill="#ffffff">gmres_example:1:&lt;module&gt;</text>
<text text-anchor="middle" x="415.1787" y="-505.4678" font-family="Arial" font-size="10.00" fill="#ffffff">100.00%</text>
<text text-anchor="middle" x="415.1787" y="-493.9688" font-family="Arial" font-size="10.00" fill="#ffffff">(0.03%)</text>
<text text-anchor="middle" x="415.1787" y="-482.4697" font-family="Arial" font-size="10.00" fill="#ffffff">1×</text>
</a>
</g>
</g>
<!-- 54&#45;&gt;53 -->
<g id="edge1" class="edge">
<title>54&#45;&gt;53</title>
<path fill="none" stroke="#0d1274" stroke-width=".5" d="M409.161,-474.7472C406.6127,-463.2202 403.6309,-449.7318 401.0013,-437.8366"/>
<polygon fill="#0d1274" stroke="#0d1274" stroke-width=".5" points="402.149,-437.3531 400.1973,-434.2001 399.7568,-437.882 402.149,-437.3531"/>
<text text-anchor="middle" x="421.356" y="-457.9707" font-family="Arial" font-size="10.00" fill="#0d1274">1.23%</text>
<text text-anchor="middle" x="421.356" y="-446.4717" font-family="Arial" font-size="10.00" fill="#0d1274">1×</text>
</g>
<!-- 322 -->
<g id="node3" class="node">
<title>322</title>
<g id="a_node3"><a xlink:title="gmrescrs.py">
<polygon fill="#fd0f00" stroke="#fd0f00" points="569.8165,-433.9707 472.5409,-433.9707 472.5409,-379.9785 569.8165,-379.9785 569.8165,-433.9707"/>
<text text-anchor="middle" x="521.1787" y="-421.9727" font-family="Arial" font-size="10.00" fill="#ffffff">gmrescrs:22:solve</text>
<text text-anchor="middle" x="521.1787" y="-410.4736" font-family="Arial" font-size="10.00" fill="#ffffff">98.55%</text>
<text text-anchor="middle" x="521.1787" y="-398.9746" font-family="Arial" font-size="10.00" fill="#ffffff">(0.60%)</text>
<text text-anchor="middle" x="521.1787" y="-387.4756" font-family="Arial" font-size="10.00" fill="#ffffff">1×</text>
</a>
</g>
</g>
<!-- 54&#45;&gt;322 -->
<g id="edge2" class="edge">
<title>54&#45;&gt;322</title>
<path fill="none" stroke="#fd0f00" stroke-width="3.94" d="M445.5541,-474.7472C457.3078,-464.2139 470.889,-452.0428 483.2712,-440.9462"/>
<polygon fill="#fd0f00" stroke="#fd0f00" stroke-width="3.94" points="485.7388,-443.3877 490.7989,-434.2001 481.1138,-438.2268 485.7388,-443.3877"/>
<text text-anchor="middle" x="498.1367" y="-457.9707" font-family="Arial" font-size="10.00" fill="#fd0f00">98.55%</text>
<text text-anchor="middle" x="498.1367" y="-446.4717" font-family="Arial" font-size="10.00" fill="#fd0f00">1×</text>
</g>
<!-- 100 -->
<g id="node8" class="node">
<title>100</title>
<g id="a_node8"><a xlink:title="gmrescrs.py">
<polygon fill="#f34d02" stroke="#f34d02" points="647.0108,-338.9766 513.3466,-338.9766 513.3466,-284.9844 647.0108,-284.9844 647.0108,-338.9766"/>
<text text-anchor="middle" x="580.1787" y="-326.9785" font-family="Arial" font-size="10.00" fill="#ffffff">gmrescrs:66:next_iteration</text>
<text text-anchor="middle" x="580.1787" y="-315.4795" font-family="Arial" font-size="10.00" fill="#ffffff">92.23%</text>
<text text-anchor="middle" x="580.1787" y="-303.9805" font-family="Arial" font-size="10.00" fill="#ffffff">(0.66%)</text>
<text text-anchor="middle" x="580.1787" y="-292.4814" font-family="Arial" font-size="10.00" fill="#ffffff">338×</text>
</a>
</g>
</g>
<!-- 322&#45;&gt;100 -->
<g id="edge15" class="edge">
<title>322&#45;&gt;100</title>
<path fill="none" stroke="#f34d02" stroke-width="3.69" d="M538.0857,-379.7531C544.3193,-369.7166 551.4764,-358.1932 558.0997,-347.5292"/>
<polygon fill="#f34d02" stroke="#f34d02" stroke-width="3.69" points="561.0584,-349.1338 563.2692,-339.206 555.3498,-345.5883 561.0584,-349.1338"/>
<text text-anchor="middle" x="575.1367" y="-362.9766" font-family="Arial" font-size="10.00" fill="#f34d02">92.23%</text>
<text text-anchor="middle" x="575.1367" y="-351.4775" font-family="Arial" font-size="10.00" fill="#f34d02">338×</text>
</g>
<!-- 175 -->
<g id="node15" class="node">
<title>175</title>
<g id="a_node15"><a xlink:title="gmrescrs.py">
<polygon fill="#0d267a" stroke="#0d267a" points="504.7178,-338.9766 373.6396,-338.9766 373.6396,-284.9844 504.7178,-284.9844 504.7178,-338.9766"/>
<text text-anchor="middle" x="439.1787" y="-326.9785" font-family="Arial" font-size="10.00" fill="#ffffff">gmrescrs:51:first_iteration</text>
<text text-anchor="middle" x="439.1787" y="-315.4795" font-family="Arial" font-size="10.00" fill="#ffffff">5.70%</text>
<text text-anchor="middle" x="439.1787" y="-303.9805" font-family="Arial" font-size="10.00" fill="#ffffff">(0.01%)</text>
<text text-anchor="middle" x="439.1787" y="-292.4814" font-family="Arial" font-size="10.00" fill="#ffffff">12×</text>
</a>
</g>
</g>
<!-- 322&#45;&gt;175 -->
<g id="edge16" class="edge">
<title>322&#45;&gt;175</title>
<path fill="none" stroke="#0d267a" stroke-width=".5" d="M497.6808,-379.7531C487.4732,-367.928 475.4838,-354.0386 465.0253,-341.9228"/>
<polygon fill="#0d267a" stroke="#0d267a" stroke-width=".5" points="465.8944,-341.0549 462.6801,-339.206 464.0398,-342.6559 465.8944,-341.0549"/>
<text text-anchor="middle" x="504.356" y="-362.9766" font-family="Arial" font-size="10.00" fill="#0d267a">5.70%</text>
<text text-anchor="middle" x="504.356" y="-351.4775" font-family="Arial" font-size="10.00" fill="#0d267a">12×</text>
</g>
<!-- 66 -->
<g id="node4" class="node">
<title>66</title>
<g id="a_node4"><a xlink:title="/usr/local/lib/python2.7/site&#45;packages/numpy/linalg/linalg.py">
<polygon fill="#0d277a" stroke="#0d277a" points="953.6628,-243.9824 882.6946,-243.9824 882.6946,-189.9902 953.6628,-189.9902 953.6628,-243.9824"/>
<text text-anchor="middle" x="918.1787" y="-231.9844" font-family="Arial" font-size="10.00" fill="#ffffff">linalg:617:qr</text>
<text text-anchor="middle" x="918.1787" y="-220.4854" font-family="Arial" font-size="10.00" fill="#ffffff">5.91%</text>
<text text-anchor="middle" x="918.1787" y="-208.9863" font-family="Arial" font-size="10.00" fill="#ffffff">(0.92%)</text>
<text text-anchor="middle" x="918.1787" y="-197.4873" font-family="Arial" font-size="10.00" fill="#ffffff">338×</text>
</a>
</g>
</g>
<!-- 192 -->
<g id="node5" class="node">
<title>192</title>
<g id="a_node5"><a xlink:title="/usr/local/lib/python2.7/site&#45;packages/numpy/linalg/linalg.py">
<polygon fill="#0d1475" stroke="#0d1475" points="1030.9621,-148.9883 859.3953,-148.9883 859.3953,-94.9961 1030.9621,-94.9961 1030.9621,-148.9883"/>
<text text-anchor="middle" x="945.1787" y="-136.9902" font-family="Arial" font-size="10.00" fill="#ffffff">linalg:180:_fastCopyAndTranspose</text>
<text text-anchor="middle" x="945.1787" y="-125.4912" font-family="Arial" font-size="10.00" fill="#ffffff">1.68%</text>
<text text-anchor="middle" x="945.1787" y="-113.9922" font-family="Arial" font-size="10.00" fill="#ffffff">(0.02%)</text>
<text text-anchor="middle" x="945.1787" y="-102.4932" font-family="Arial" font-size="10.00" fill="#ffffff">1014×</text>
</a>
</g>
</g>
<!-- 66&#45;&gt;192 -->
<g id="edge3" class="edge">
<title>66&#45;&gt;192</title>
<path fill="none" stroke="#0d1475" stroke-width=".5" d="M925.9158,-189.7648C929.1921,-178.2378 933.0259,-164.7494 936.4069,-152.8542"/>
<polygon fill="#0d1475" stroke="#0d1475" stroke-width=".5" points="937.6618,-152.9193 937.4405,-149.2177 935.3052,-152.2494 937.6618,-152.9193"/>
<text text-anchor="middle" x="948.356" y="-172.9883" font-family="Arial" font-size="10.00" fill="#0d1475">1.68%</text>
<text text-anchor="middle" x="948.356" y="-161.4893" font-family="Arial" font-size="10.00" fill="#0d1475">1014×</text>
</g>
<!-- 522 -->
<g id="node6" class="node">
<title>522</title>
<g id="a_node6"><a xlink:title="~">
<polygon fill="#0d1475" stroke="#0d1475" points="1220.879,-148.9883 1039.4784,-148.9883 1039.4784,-94.9961 1220.879,-94.9961 1220.879,-148.9883"/>
<text text-anchor="middle" x="1130.1787" y="-136.9902" font-family="Arial" font-size="10.00" fill="#ffffff">~:0:&lt;numpy.linalg.lapack_lite.dgeqrf&gt;</text>
<text text-anchor="middle" x="1130.1787" y="-125.4912" font-family="Arial" font-size="10.00" fill="#ffffff">1.65%</text>
<text text-anchor="middle" x="1130.1787" y="-113.9922" font-family="Arial" font-size="10.00" fill="#ffffff">(1.65%)</text>
<text text-anchor="middle" x="1130.1787" y="-102.4932" font-family="Arial" font-size="10.00" fill="#ffffff">676×</text>
</a>
</g>
</g>
<!-- 66&#45;&gt;522 -->
<g id="edge4" class="edge">
<title>66&#45;&gt;522</title>
<path fill="none" stroke="#0d1475" stroke-width=".5" d="M953.6627,-201.0864C984.2656,-187.3737 1029.2199,-167.2304 1066.102,-150.704"/>
<polygon fill="#0d1475" stroke="#0d1475" stroke-width=".5" points="1066.9522,-151.6655 1069.6453,-149.1163 1065.9503,-149.4297 1066.9522,-151.6655"/>
<text text-anchor="middle" x="1063.356" y="-172.9883" font-family="Arial" font-size="10.00" fill="#0d1475">1.65%</text>
<text text-anchor="middle" x="1063.356" y="-161.4893" font-family="Arial" font-size="10.00" fill="#0d1475">676×</text>
</g>
<!-- 547 -->
<g id="node7" class="node">
<title>547</title>
<g id="a_node7"><a xlink:title="~">
<polygon fill="#0d1375" stroke="#0d1375" points="849.9308,-148.9883 668.4266,-148.9883 668.4266,-94.9961 849.9308,-94.9961 849.9308,-148.9883"/>
<text text-anchor="middle" x="759.1787" y="-136.9902" font-family="Arial" font-size="10.00" fill="#ffffff">~:0:&lt;numpy.linalg.lapack_lite.dorgqr&gt;</text>
<text text-anchor="middle" x="759.1787" y="-125.4912" font-family="Arial" font-size="10.00" fill="#ffffff">1.54%</text>
<text text-anchor="middle" x="759.1787" y="-113.9922" font-family="Arial" font-size="10.00" fill="#ffffff">(1.54%)</text>
<text text-anchor="middle" x="759.1787" y="-102.4932" font-family="Arial" font-size="10.00" fill="#ffffff">676×</text>
</a>
</g>
</g>
<!-- 66&#45;&gt;547 -->
<g id="edge5" class="edge">
<title>66&#45;&gt;547</title>
<path fill="none" stroke="#0d1375" stroke-width=".5" d="M882.8915,-195.904C860.8267,-182.7215 832.0996,-165.5586 807.8822,-151.09"/>
<polygon fill="#0d1375" stroke="#0d1375" stroke-width=".5" points="808.2815,-149.9016 804.6486,-149.1581 807.0249,-152.0048 808.2815,-149.9016"/>
<text text-anchor="middle" x="871.356" y="-172.9883" font-family="Arial" font-size="10.00" fill="#0d1375">1.54%</text>
<text text-anchor="middle" x="871.356" y="-161.4893" font-family="Arial" font-size="10.00" fill="#0d1375">676×</text>
</g>
<!-- 455 -->
<g id="node16" class="node">
<title>455</title>
<g id="a_node16"><a xlink:title="~">
<polygon fill="#0d1475" stroke="#0d1475" points="1072.224,-53.9941 818.1334,-53.9941 818.1334,-.002 1072.224,-.002 1072.224,-53.9941"/>
<text text-anchor="middle" x="945.1787" y="-41.9961" font-family="Arial" font-size="10.00" fill="#ffffff">~:0:&lt;numpy.core.multiarray._fastCopyAndTranspose&gt;</text>
<text text-anchor="middle" x="945.1787" y="-30.4971" font-family="Arial" font-size="10.00" fill="#ffffff">1.67%</text>
<text text-anchor="middle" x="945.1787" y="-18.998" font-family="Arial" font-size="10.00" fill="#ffffff">(1.67%)</text>
<text text-anchor="middle" x="945.1787" y="-7.499" font-family="Arial" font-size="10.00" fill="#ffffff">1014×</text>
</a>
</g>
</g>
<!-- 192&#45;&gt;455 -->
<g id="edge14" class="edge">
<title>192&#45;&gt;455</title>
<path fill="none" stroke="#0d1475" stroke-width=".5" d="M945.1787,-94.7707C945.1787,-83.2436 945.1787,-69.7552 945.1787,-57.86"/>
<polygon fill="#0d1475" stroke="#0d1475" stroke-width=".5" points="946.4038,-57.7235 945.1787,-54.2235 943.9538,-57.7236 946.4038,-57.7235"/>
<text text-anchor="middle" x="959.356" y="-77.9941" font-family="Arial" font-size="10.00" fill="#0d1475">1.67%</text>
<text text-anchor="middle" x="959.356" y="-66.4951" font-family="Arial" font-size="10.00" fill="#0d1475">1014×</text>
</g>
<!-- 100&#45;&gt;66 -->
<g id="edge6" class="edge">
<title>100&#45;&gt;66</title>
<path fill="none" stroke="#0d277a" stroke-width=".5" d="M647.1689,-298.0477C702.6934,-285.8312 783.3733,-266.5287 852.1787,-243.9844 861.1896,-241.0319 870.7166,-237.4294 879.6443,-233.8301"/>
<polygon fill="#0d277a" stroke="#0d277a" stroke-width=".5" points="880.1229,-234.9579 882.9043,-232.5054 879.2005,-232.6882 880.1229,-234.9579"/>
<text text-anchor="middle" x="837.356" y="-267.9824" font-family="Arial" font-size="10.00" fill="#0d277a">5.91%</text>
<text text-anchor="middle" x="837.356" y="-256.4834" font-family="Arial" font-size="10.00" fill="#0d277a">338×</text>
</g>
<!-- 174 -->
<g id="node9" class="node">
<title>174</title>
<g id="a_node9"><a xlink:title="crsmatrix.py">
<polygon fill="#ed7403" stroke="#ed7403" points="512.0581,-243.9824 362.2993,-243.9824 362.2993,-189.9902 512.0581,-189.9902 512.0581,-243.9824"/>
<text text-anchor="middle" x="437.1787" y="-231.9844" font-family="Arial" font-size="10.00" fill="#ffffff">crsmatrix:162:mult_left_vector</text>
<text text-anchor="middle" x="437.1787" y="-220.4854" font-family="Arial" font-size="10.00" fill="#ffffff">87.93%</text>
<text text-anchor="middle" x="437.1787" y="-208.9863" font-family="Arial" font-size="10.00" fill="#ffffff">(69.54%)</text>
<text text-anchor="middle" x="437.1787" y="-197.4873" font-family="Arial" font-size="10.00" fill="#ffffff">362×</text>
</a>
</g>
</g>
<!-- 100&#45;&gt;174 -->
<g id="edge7" class="edge">
<title>100&#45;&gt;174</title>
<path fill="none" stroke="#e4a304" stroke-width="3.29" d="M539.2007,-284.759C522.5963,-273.7288 503.2884,-260.9026 485.9654,-249.3951"/>
<polygon fill="#e4a304" stroke="#e4a304" stroke-width="3.29" points="487.5051,-246.5942 478.1628,-244.2118 483.9803,-251.9002 487.5051,-246.5942"/>
<text text-anchor="middle" x="543.1367" y="-267.9824" font-family="Arial" font-size="10.00" fill="#e4a304">82.25%</text>
<text text-anchor="middle" x="543.1367" y="-256.4834" font-family="Arial" font-size="10.00" fill="#e4a304">338×</text>
</g>
<!-- 345 -->
<g id="node10" class="node">
<title>345</title>
<g id="a_node10"><a xlink:title="/usr/local/lib/python2.7/site&#45;packages/numpy/matrixlib/defmatrix.py">
<polygon fill="#0d1174" stroke="#0d1174" points="638.9027,-243.9824 521.4548,-243.9824 521.4548,-189.9902 638.9027,-189.9902 638.9027,-243.9824"/>
<text text-anchor="middle" x="580.1787" y="-231.9844" font-family="Arial" font-size="10.00" fill="#ffffff">defmatrix:340:__mul__</text>
<text text-anchor="middle" x="580.1787" y="-220.4854" font-family="Arial" font-size="10.00" fill="#ffffff">0.95%</text>
<text text-anchor="middle" x="580.1787" y="-208.9863" font-family="Arial" font-size="10.00" fill="#ffffff">(0.02%)</text>
<text text-anchor="middle" x="580.1787" y="-197.4873" font-family="Arial" font-size="10.00" fill="#ffffff">6013×</text>
</a>
</g>
</g>
<!-- 100&#45;&gt;345 -->
<g id="edge8" class="edge">
<title>100&#45;&gt;345</title>
<path fill="none" stroke="#0d1174" stroke-width=".5" d="M580.1787,-284.759C580.1787,-273.2319 580.1787,-259.7435 580.1787,-247.8483"/>
<polygon fill="#0d1174" stroke="#0d1174" stroke-width=".5" points="581.4038,-247.7118 580.1787,-244.2118 578.9538,-247.7118 581.4038,-247.7118"/>
<text text-anchor="middle" x="594.356" y="-267.9824" font-family="Arial" font-size="10.00" fill="#0d1174">0.95%</text>
<text text-anchor="middle" x="594.356" y="-256.4834" font-family="Arial" font-size="10.00" fill="#0d1174">5989×</text>
</g>
<!-- 570 -->
<g id="node11" class="node">
<title>570</title>
<g id="a_node11"><a xlink:title="~">
<polygon fill="#0d1375" stroke="#0d1375" points="848.0188,-243.9824 648.3386,-243.9824 648.3386,-189.9902 848.0188,-189.9902 848.0188,-243.9824"/>
<text text-anchor="middle" x="748.1787" y="-231.9844" font-family="Arial" font-size="10.00" fill="#ffffff">~:0:&lt;numpy.core.multiarray.concatenate&gt;</text>
<text text-anchor="middle" x="748.1787" y="-220.4854" font-family="Arial" font-size="10.00" fill="#ffffff">1.59%</text>
<text text-anchor="middle" x="748.1787" y="-208.9863" font-family="Arial" font-size="10.00" fill="#ffffff">(1.58%)</text>
<text text-anchor="middle" x="748.1787" y="-197.4873" font-family="Arial" font-size="10.00" fill="#ffffff">676×</text>
</a>
</g>
</g>
<!-- 100&#45;&gt;570 -->
<g id="edge9" class="edge">
<title>100&#45;&gt;570</title>
<path fill="none" stroke="#0d1375" stroke-width=".5" d="M628.3208,-284.759C649.8535,-272.5834 675.2564,-258.2196 697.1209,-245.8565"/>
<polygon fill="#0d1375" stroke="#0d1375" stroke-width=".5" points="697.8766,-246.8366 700.3203,-244.0475 696.6706,-244.7039 697.8766,-246.8366"/>
<text text-anchor="middle" x="698.356" y="-267.9824" font-family="Arial" font-size="10.00" fill="#0d1375">1.59%</text>
<text text-anchor="middle" x="698.356" y="-256.4834" font-family="Arial" font-size="10.00" fill="#0d1375">676×</text>
</g>
<!-- 440 -->
<g id="node12" class="node">
<title>440</title>
<g id="a_node12"><a xlink:title="~">
<polygon fill="#0d4783" stroke="#0d4783" points="412.7943,-148.9883 191.5631,-148.9883 191.5631,-94.9961 412.7943,-94.9961 412.7943,-148.9883"/>
<text text-anchor="middle" x="302.1787" y="-136.9902" font-family="Arial" font-size="10.00" fill="#ffffff">~:0:&lt;method &#39;item&#39; of &#39;numpy.ndarray&#39; objects&gt;</text>
<text text-anchor="middle" x="302.1787" y="-125.4912" font-family="Arial" font-size="10.00" fill="#ffffff">12.38%</text>
<text text-anchor="middle" x="302.1787" y="-113.9922" font-family="Arial" font-size="10.00" fill="#ffffff">(12.38%)</text>
<text text-anchor="middle" x="302.1787" y="-102.4932" font-family="Arial" font-size="10.00" fill="#ffffff">53970580×</text>
</a>
</g>
</g>
<!-- 174&#45;&gt;440 -->
<g id="edge10" class="edge">
<title>174&#45;&gt;440</title>
<path fill="none" stroke="#0d4783" stroke-width=".5" d="M398.4931,-189.7648C381.4055,-177.7409 361.285,-163.5829 343.865,-151.3252"/>
<polygon fill="#0d4783" stroke="#0d4783" stroke-width=".5" points="344.4373,-150.23 340.8699,-149.2177 343.0274,-152.2337 344.4373,-150.23"/>
<text text-anchor="middle" x="411.3447" y="-172.9883" font-family="Arial" font-size="10.00" fill="#0d4783">12.38%</text>
<text text-anchor="middle" x="411.3447" y="-161.4893" font-family="Arial" font-size="10.00" fill="#0d4783">53970580×</text>
</g>
<!-- 502 -->
<g id="node13" class="node">
<title>502</title>
<g id="a_node13"><a xlink:title="~">
<polygon fill="#0d2279" stroke="#0d2279" points="492.3929,-148.9883 421.9645,-148.9883 421.9645,-94.9961 492.3929,-94.9961 492.3929,-148.9883"/>
<text text-anchor="middle" x="457.1787" y="-136.9902" font-family="Arial" font-size="10.00" fill="#ffffff">~:0:&lt;range&gt;</text>
<text text-anchor="middle" x="457.1787" y="-125.4912" font-family="Arial" font-size="10.00" fill="#ffffff">4.91%</text>
<text text-anchor="middle" x="457.1787" y="-113.9922" font-family="Arial" font-size="10.00" fill="#ffffff">(4.91%)</text>
<text text-anchor="middle" x="457.1787" y="-102.4932" font-family="Arial" font-size="10.00" fill="#ffffff">4331283×</text>
</a>
</g>
</g>
<!-- 174&#45;&gt;502 -->
<g id="edge11" class="edge">
<title>174&#45;&gt;502</title>
<path fill="none" stroke="#0d2279" stroke-width=".5" d="M442.9099,-189.7648C445.3368,-178.2378 448.1766,-164.7494 450.681,-152.8542"/>
<polygon fill="#0d2279" stroke="#0d2279" stroke-width=".5" points="451.9242,-152.895 451.4467,-149.2177 449.5268,-152.3902 451.9242,-152.895"/>
<text text-anchor="middle" x="472.564" y="-172.9883" font-family="Arial" font-size="10.00" fill="#0d2279">4.90%</text>
<text text-anchor="middle" x="472.564" y="-161.4893" font-family="Arial" font-size="10.00" fill="#0d2279">4325538×</text>
</g>
<!-- 583 -->
<g id="node14" class="node">
<title>583</title>
<g id="a_node14"><a xlink:title="~">
<polygon fill="#0d1074" stroke="#0d1074" points="182.5365,-148.9883 -.1791,-148.9883 -.1791,-94.9961 182.5365,-94.9961 182.5365,-148.9883"/>
<text text-anchor="middle" x="91.1787" y="-136.9902" font-family="Arial" font-size="10.00" fill="#ffffff">~:0:&lt;method &#39;append&#39; of &#39;list&#39; objects&gt;</text>
<text text-anchor="middle" x="91.1787" y="-125.4912" font-family="Arial" font-size="10.00" fill="#ffffff">0.85%</text>
<text text-anchor="middle" x="91.1787" y="-113.9922" font-family="Arial" font-size="10.00" fill="#ffffff">(0.85%)</text>
<text text-anchor="middle" x="91.1787" y="-102.4932" font-family="Arial" font-size="10.00" fill="#ffffff">4786153×</text>
</a>
</g>
</g>
<!-- 174&#45;&gt;583 -->
<g id="edge12" class="edge">
<title>174&#45;&gt;583</title>
<path fill="none" stroke="#0d1074" stroke-width=".5" d="M362.4719,-196.8471C312.7629,-183.4024 246.0286,-165.2682 187.1787,-148.9902 186.7824,-148.8806 186.3852,-148.7707 185.9871,-148.6605"/>
<polygon fill="#0d1074" stroke="#0d1074" stroke-width=".5" points="186.0827,-147.4159 182.3826,-147.6618 185.4285,-149.777 186.0827,-147.4159"/>
<text text-anchor="middle" x="326.564" y="-172.9883" font-family="Arial" font-size="10.00" fill="#0d1074">0.76%</text>
<text text-anchor="middle" x="326.564" y="-161.4893" font-family="Arial" font-size="10.00" fill="#0d1074">4325176×</text>
</g>
<!-- 344 -->
<g id="node17" class="node">
<title>344</title>
<g id="a_node17"><a xlink:title="~">
<polygon fill="#0d1274" stroke="#0d1274" points="659.4328,-148.9883 500.9246,-148.9883 500.9246,-94.9961 659.4328,-94.9961 659.4328,-148.9883"/>
<text text-anchor="middle" x="580.1787" y="-136.9902" font-family="Arial" font-size="10.00" fill="#ffffff">~:0:&lt;numpy.core.multiarray.dot&gt;</text>
<text text-anchor="middle" x="580.1787" y="-125.4912" font-family="Arial" font-size="10.00" fill="#ffffff">1.31%</text>
<text text-anchor="middle" x="580.1787" y="-113.9922" font-family="Arial" font-size="10.00" fill="#ffffff">(1.29%)</text>
<text text-anchor="middle" x="580.1787" y="-102.4932" font-family="Arial" font-size="10.00" fill="#ffffff">11712×</text>
</a>
</g>
</g>
<!-- 345&#45;&gt;344 -->
<g id="edge17" class="edge">
<title>345&#45;&gt;344</title>
<path fill="none" stroke="#0d1074" stroke-width=".5" d="M580.1787,-189.7648C580.1787,-178.2378 580.1787,-164.7494 580.1787,-152.8542"/>
<polygon fill="#0d1074" stroke="#0d1074" stroke-width=".5" points="581.4038,-152.7176 580.1787,-149.2177 578.9538,-152.7177 581.4038,-152.7176"/>
<text text-anchor="middle" x="594.356" y="-172.9883" font-family="Arial" font-size="10.00" fill="#0d1074">0.88%</text>
<text text-anchor="middle" x="594.356" y="-161.4893" font-family="Arial" font-size="10.00" fill="#0d1074">6013×</text>
</g>
<!-- 175&#45;&gt;174 -->
<g id="edge13" class="edge">
<title>175&#45;&gt;174</title>
<path fill="none" stroke="#0d267a" stroke-width=".5" d="M438.6056,-284.759C438.3629,-273.2319 438.0789,-259.7435 437.8285,-247.8483"/>
<polygon fill="#0d267a" stroke="#0d267a" stroke-width=".5" points="439.0504,-247.6852 437.7519,-244.2118 436.601,-247.7369 439.0504,-247.6852"/>
<text text-anchor="middle" x="453.356" y="-267.9824" font-family="Arial" font-size="10.00" fill="#0d267a">5.69%</text>
<text text-anchor="middle" x="453.356" y="-256.4834" font-family="Arial" font-size="10.00" fill="#0d267a">24×</text>
</g>
</g>
</svg>
