<?xml version="1.0" encoding="UTF-8" standalone="no"?>
<!DOCTYPE svg PUBLIC "-//W3C//DTD SVG 1.1//EN"
 "http://www.w3.org/Graphics/SVG/1.1/DTD/svg11.dtd">
<!-- Generated by graphviz version 2.40.1 (20161225.0304)
 -->
<!-- Title: %3 Pages: 1 -->
<svg width="500pt" height="442pt"
 viewBox="0.00 0.00 499.99 441.97" xmlns="http://www.w3.org/2000/svg" xmlns:xlink="http://www.w3.org/1999/xlink">
<g id="graph0" class="graph" transform="scale(1 1) rotate(0) translate(4 437.9727)">
<title>%3</title>
<polygon fill="#ffffff" stroke="transparent" points="-4,4 -4,-437.9727 495.9863,-437.9727 495.9863,4 -4,4"/>
<!-- 53 -->
<g id="node1" class="node">
<title>53</title>
<g id="a_node1"><a xlink:title="crsmatrix.py">
<polygon fill="#0d1174" stroke="#0d1174" points="219.6675,-338.9766 79.9478,-338.9766 79.9478,-284.9844 219.6675,-284.9844 219.6675,-338.9766"/>
<text text-anchor="middle" x="149.8076" y="-326.9785" font-family="Arial" font-size="10.00" fill="#ffffff">crsmatrix:104:from_mm_file</text>
<text text-anchor="middle" x="149.8076" y="-315.4795" font-family="Arial" font-size="10.00" fill="#ffffff">1.00%</text>
<text text-anchor="middle" x="149.8076" y="-303.9805" font-family="Arial" font-size="10.00" fill="#ffffff">(0.68%)</text>
<text text-anchor="middle" x="149.8076" y="-292.4814" font-family="Arial" font-size="10.00" fill="#ffffff">1×</text>
</a>
</g>
</g>
<!-- 54 -->
<g id="node2" class="node">
<title>54</title>
<g id="a_node2"><a xlink:title="gmres_example.py">
<polygon fill="#ff0000" stroke="#ff0000" points="242.0461,-433.9707 99.5691,-433.9707 99.5691,-379.9785 242.0461,-379.9785 242.0461,-433.9707"/>
<text text-anchor="middle" x="170.8076" y="-421.9727" font-family="Arial" font-size="10.00" fill="#ffffff">gmres_example:1:&lt;module&gt;</text>
<text text-anchor="middle" x="170.8076" y="-410.4736" font-family="Arial" font-size="10.00" fill="#ffffff">100.00%</text>
<text text-anchor="middle" x="170.8076" y="-398.9746" font-family="Arial" font-size="10.00" fill="#ffffff">(0.02%)</text>
<text text-anchor="middle" x="170.8076" y="-387.4756" font-family="Arial" font-size="10.00" fill="#ffffff">1×</text>
</a>
</g>
</g>
<!-- 54&#45;&gt;53 -->
<g id="edge1" class="edge">
<title>54&#45;&gt;53</title>
<path fill="none" stroke="#0d1174" stroke-width=".5" d="M164.7899,-379.7531C162.2416,-368.2261 159.2598,-354.7376 156.6302,-342.8425"/>
<polygon fill="#0d1174" stroke="#0d1174" stroke-width=".5" points="157.7779,-342.359 155.8263,-339.206 155.3857,-342.8879 157.7779,-342.359"/>
<text text-anchor="middle" x="176.9849" y="-362.9766" font-family="Arial" font-size="10.00" fill="#0d1174">1.00%</text>
<text text-anchor="middle" x="176.9849" y="-351.4775" font-family="Arial" font-size="10.00" fill="#0d1174">1×</text>
</g>
<!-- 320 -->
<g id="node3" class="node">
<title>320</title>
<g id="a_node3"><a xlink:title="gmrescrs.py">
<polygon fill="#fd0c00" stroke="#fd0c00" points="325.4454,-338.9766 228.1698,-338.9766 228.1698,-284.9844 325.4454,-284.9844 325.4454,-338.9766"/>
<text text-anchor="middle" x="276.8076" y="-326.9785" font-family="Arial" font-size="10.00" fill="#ffffff">gmrescrs:22:solve</text>
<text text-anchor="middle" x="276.8076" y="-315.4795" font-family="Arial" font-size="10.00" fill="#ffffff">98.83%</text>
<text text-anchor="middle" x="276.8076" y="-303.9805" font-family="Arial" font-size="10.00" fill="#ffffff">(0.04%)</text>
<text text-anchor="middle" x="276.8076" y="-292.4814" font-family="Arial" font-size="10.00" fill="#ffffff">1×</text>
</a>
</g>
</g>
<!-- 54&#45;&gt;320 -->
<g id="edge2" class="edge">
<title>54&#45;&gt;320</title>
<path fill="none" stroke="#fd0c00" stroke-width="3.95" d="M201.183,-379.7531C212.9367,-369.2198 226.5179,-357.0487 238.9001,-345.952"/>
<polygon fill="#fd0c00" stroke="#fd0c00" stroke-width="3.95" points="241.3677,-348.3936 246.4278,-339.206 236.7427,-343.2327 241.3677,-348.3936"/>
<text text-anchor="middle" x="253.7656" y="-362.9766" font-family="Arial" font-size="10.00" fill="#fd0c00">98.83%</text>
<text text-anchor="middle" x="253.7656" y="-351.4775" font-family="Arial" font-size="10.00" fill="#fd0c00">1×</text>
</g>
<!-- 100 -->
<g id="node4" class="node">
<title>100</title>
<g id="a_node4"><a xlink:title="gmrescrs.py">
<polygon fill="#90ce07" stroke="#90ce07" points="262.6398,-243.9824 128.9755,-243.9824 128.9755,-189.9902 262.6398,-189.9902 262.6398,-243.9824"/>
<text text-anchor="middle" x="195.8076" y="-231.9844" font-family="Arial" font-size="10.00" fill="#ffffff">gmrescrs:66:next_iteration</text>
<text text-anchor="middle" x="195.8076" y="-220.4854" font-family="Arial" font-size="10.00" fill="#ffffff">67.23%</text>
<text text-anchor="middle" x="195.8076" y="-208.9863" font-family="Arial" font-size="10.00" fill="#ffffff">(0.15%)</text>
<text text-anchor="middle" x="195.8076" y="-197.4873" font-family="Arial" font-size="10.00" fill="#ffffff">320×</text>
</a>
</g>
</g>
<!-- 320&#45;&gt;100 -->
<g id="edge8" class="edge">
<title>320&#45;&gt;100</title>
<path fill="none" stroke="#90ce07" stroke-width="2.69" d="M253.5963,-284.759C244.5299,-274.1263 234.0406,-261.8247 224.5071,-250.6441"/>
<polygon fill="#90ce07" stroke="#90ce07" stroke-width="2.69" points="226.5267,-248.5893 219.0224,-244.2118 222.1589,-252.3136 226.5267,-248.5893"/>
<text text-anchor="middle" x="263.7656" y="-267.9824" font-family="Arial" font-size="10.00" fill="#90ce07">67.23%</text>
<text text-anchor="middle" x="263.7656" y="-256.4834" font-family="Arial" font-size="10.00" fill="#90ce07">320×</text>
</g>
<!-- 175 -->
<g id="node9" class="node">
<title>175</title>
<g id="a_node9"><a xlink:title="gmrescrs.py">
<polygon fill="#0b9c76" stroke="#0b9c76" points="402.3467,-243.9824 271.2685,-243.9824 271.2685,-189.9902 402.3467,-189.9902 402.3467,-243.9824"/>
<text text-anchor="middle" x="336.8076" y="-231.9844" font-family="Arial" font-size="10.00" fill="#ffffff">gmrescrs:51:first_iteration</text>
<text text-anchor="middle" x="336.8076" y="-220.4854" font-family="Arial" font-size="10.00" fill="#ffffff">31.54%</text>
<text text-anchor="middle" x="336.8076" y="-208.9863" font-family="Arial" font-size="10.00" fill="#ffffff">(0.03%)</text>
<text text-anchor="middle" x="336.8076" y="-197.4873" font-family="Arial" font-size="10.00" fill="#ffffff">80×</text>
</a>
</g>
</g>
<!-- 320&#45;&gt;175 -->
<g id="edge9" class="edge">
<title>320&#45;&gt;175</title>
<path fill="none" stroke="#0b9c76" stroke-width="1.26" d="M294.0012,-284.759C301.0308,-273.6294 309.2153,-260.6714 316.5339,-249.0844"/>
<polygon fill="#0b9c76" stroke="#0b9c76" stroke-width="1.26" points="318.2781,-249.9932 319.6115,-244.2118 314.9638,-247.8998 318.2781,-249.9932"/>
<text text-anchor="middle" x="330.7656" y="-267.9824" font-family="Arial" font-size="10.00" fill="#0b9c76">31.54%</text>
<text text-anchor="middle" x="330.7656" y="-256.4834" font-family="Arial" font-size="10.00" fill="#0b9c76">80×</text>
</g>
<!-- 174 -->
<g id="node5" class="node">
<title>174</title>
<g id="a_node5"><a xlink:title="crsmatrix.py">
<polygon fill="#fc1701" stroke="#fc1701" points="340.687,-148.9883 190.9282,-148.9883 190.9282,-94.9961 340.687,-94.9961 340.687,-148.9883"/>
<text text-anchor="middle" x="265.8076" y="-136.9902" font-family="Arial" font-size="10.00" fill="#ffffff">crsmatrix:162:mult_left_vector</text>
<text text-anchor="middle" x="265.8076" y="-125.4912" font-family="Arial" font-size="10.00" fill="#ffffff">97.72%</text>
<text text-anchor="middle" x="265.8076" y="-113.9922" font-family="Arial" font-size="10.00" fill="#ffffff">(77.19%)</text>
<text text-anchor="middle" x="265.8076" y="-102.4932" font-family="Arial" font-size="10.00" fill="#ffffff">480×</text>
</a>
</g>
</g>
<!-- 100&#45;&gt;174 -->
<g id="edge3" class="edge">
<title>100&#45;&gt;174</title>
<path fill="none" stroke="#88cd07" stroke-width="2.65" d="M215.8668,-189.7648C223.6287,-179.2315 232.5974,-167.0604 240.7744,-155.9638"/>
<polygon fill="#88cd07" stroke="#88cd07" stroke-width="2.65" points="243.2226,-157.4203 245.7455,-149.2177 238.6581,-154.0567 243.2226,-157.4203"/>
<text text-anchor="middle" x="256.7656" y="-172.9883" font-family="Arial" font-size="10.00" fill="#88cd07">66.24%</text>
<text text-anchor="middle" x="256.7656" y="-161.4893" font-family="Arial" font-size="10.00" fill="#88cd07">320×</text>
</g>
<!-- 438 -->
<g id="node6" class="node">
<title>438</title>
<g id="a_node6"><a xlink:title="~">
<polygon fill="#0d4f85" stroke="#0d4f85" points="221.4232,-53.9941 .192,-53.9941 .192,-.002 221.4232,-.002 221.4232,-53.9941"/>
<text text-anchor="middle" x="110.8076" y="-41.9961" font-family="Arial" font-size="10.00" fill="#ffffff">~:0:&lt;method &#39;item&#39; of &#39;numpy.ndarray&#39; objects&gt;</text>
<text text-anchor="middle" x="110.8076" y="-30.4971" font-family="Arial" font-size="10.00" fill="#ffffff">13.89%</text>
<text text-anchor="middle" x="110.8076" y="-18.998" font-family="Arial" font-size="10.00" fill="#ffffff">(13.89%)</text>
<text text-anchor="middle" x="110.8076" y="-7.499" font-family="Arial" font-size="10.00" fill="#ffffff">71563200×</text>
</a>
</g>
</g>
<!-- 174&#45;&gt;438 -->
<g id="edge4" class="edge">
<title>174&#45;&gt;438</title>
<path fill="none" stroke="#0d4f85" stroke-width=".56" d="M221.3908,-94.7707C201.6871,-82.695 178.4711,-68.4667 158.4112,-56.1726"/>
<polygon fill="#0d4f85" stroke="#0d4f85" stroke-width=".56" points="158.7941,-54.8885 154.9627,-54.0592 157.4407,-57.0968 158.7941,-54.8885"/>
<text text-anchor="middle" x="231.9736" y="-77.9941" font-family="Arial" font-size="10.00" fill="#0d4f85">13.89%</text>
<text text-anchor="middle" x="231.9736" y="-66.4951" font-family="Arial" font-size="10.00" fill="#0d4f85">71563200×</text>
</g>
<!-- 500 -->
<g id="node7" class="node">
<title>500</title>
<g id="a_node7"><a xlink:title="~">
<polygon fill="#0d247a" stroke="#0d247a" points="301.0218,-53.9941 230.5934,-53.9941 230.5934,-.002 301.0218,-.002 301.0218,-53.9941"/>
<text text-anchor="middle" x="265.8076" y="-41.9961" font-family="Arial" font-size="10.00" fill="#ffffff">~:0:&lt;range&gt;</text>
<text text-anchor="middle" x="265.8076" y="-30.4971" font-family="Arial" font-size="10.00" fill="#ffffff">5.39%</text>
<text text-anchor="middle" x="265.8076" y="-18.998" font-family="Arial" font-size="10.00" fill="#ffffff">(5.39%)</text>
<text text-anchor="middle" x="265.8076" y="-7.499" font-family="Arial" font-size="10.00" fill="#ffffff">5737054×</text>
</a>
</g>
</g>
<!-- 174&#45;&gt;500 -->
<g id="edge5" class="edge">
<title>174&#45;&gt;500</title>
<path fill="none" stroke="#0d247a" stroke-width=".5" d="M265.8076,-94.7707C265.8076,-83.2436 265.8076,-69.7552 265.8076,-57.86"/>
<polygon fill="#0d247a" stroke="#0d247a" stroke-width=".5" points="267.0327,-57.7235 265.8076,-54.2235 264.5827,-57.7236 267.0327,-57.7235"/>
<text text-anchor="middle" x="288.1929" y="-77.9941" font-family="Arial" font-size="10.00" fill="#0d247a">5.39%</text>
<text text-anchor="middle" x="288.1929" y="-66.4951" font-family="Arial" font-size="10.00" fill="#0d247a">5735520×</text>
</g>
<!-- 583 -->
<g id="node8" class="node">
<title>583</title>
<g id="a_node8"><a xlink:title="~">
<polygon fill="#0d1174" stroke="#0d1174" points="492.1654,-53.9941 309.4498,-53.9941 309.4498,-.002 492.1654,-.002 492.1654,-53.9941"/>
<text text-anchor="middle" x="400.8076" y="-41.9961" font-family="Arial" font-size="10.00" fill="#ffffff">~:0:&lt;method &#39;append&#39; of &#39;list&#39; objects&gt;</text>
<text text-anchor="middle" x="400.8076" y="-30.4971" font-family="Arial" font-size="10.00" fill="#ffffff">0.92%</text>
<text text-anchor="middle" x="400.8076" y="-18.998" font-family="Arial" font-size="10.00" fill="#ffffff">(0.92%)</text>
<text text-anchor="middle" x="400.8076" y="-7.499" font-family="Arial" font-size="10.00" fill="#ffffff">6195999×</text>
</a>
</g>
</g>
<!-- 174&#45;&gt;583 -->
<g id="edge6" class="edge">
<title>174&#45;&gt;583</title>
<path fill="none" stroke="#0d1074" stroke-width=".5" d="M304.4932,-94.7707C321.5808,-82.7468 341.7014,-68.5888 359.1213,-56.331"/>
<polygon fill="#0d1074" stroke="#0d1074" stroke-width=".5" points="359.959,-57.2396 362.1164,-54.2235 358.549,-55.2359 359.959,-57.2396"/>
<text text-anchor="middle" x="371.1929" y="-77.9941" font-family="Arial" font-size="10.00" fill="#0d1074">0.86%</text>
<text text-anchor="middle" x="371.1929" y="-66.4951" font-family="Arial" font-size="10.00" fill="#0d1074">5735040×</text>
</g>
<!-- 175&#45;&gt;174 -->
<g id="edge7" class="edge">
<title>175&#45;&gt;174</title>
<path fill="none" stroke="#0b9c77" stroke-width="1.26" d="M316.4619,-189.7648C308.0692,-178.5359 298.2854,-165.4457 289.5665,-153.7802"/>
<polygon fill="#0b9c77" stroke="#0b9c77" stroke-width="1.26" points="291.0789,-152.5298 286.1563,-149.2177 287.939,-154.8767 291.0789,-152.5298"/>
<text text-anchor="middle" x="326.7656" y="-172.9883" font-family="Arial" font-size="10.00" fill="#0b9c77">31.48%</text>
<text text-anchor="middle" x="326.7656" y="-161.4893" font-family="Arial" font-size="10.00" fill="#0b9c77">160×</text>
</g>
</g>
</svg>
