<?xml version="1.0" encoding="UTF-8" standalone="no"?>
<!DOCTYPE svg PUBLIC "-//W3C//DTD SVG 1.1//EN"
 "http://www.w3.org/Graphics/SVG/1.1/DTD/svg11.dtd">
<!-- Generated by graphviz version 2.40.1 (20161225.0304)
 -->
<!-- Title: %3 Pages: 1 -->
<svg width="500pt" height="473pt"
 viewBox="0.00 0.00 500.29 472.97" xmlns="http://www.w3.org/2000/svg" xmlns:xlink="http://www.w3.org/1999/xlink">
<g id="graph0" class="graph" transform="scale(1 1) rotate(0) translate(4 468.9707)">
<title>%3</title>
<polygon fill="#ffffff" stroke="transparent" points="-4,4 -4,-468.9707 496.2856,-468.9707 496.2856,4 -4,4"/>
<!-- 53 -->
<g id="node1" class="node">
<title>53</title>
<g id="a_node1"><a xlink:title="crsmatrix.py">
<polygon fill="#0d1976" stroke="#0d1976" points="161.0386,-306.9785 21.3189,-306.9785 21.3189,-252.9863 161.0386,-252.9863 161.0386,-306.9785"/>
<text text-anchor="middle" x="91.1787" y="-294.9805" font-family="Arial" font-size="10.00" fill="#ffffff">crsmatrix:104:from_mm_file</text>
<text text-anchor="middle" x="91.1787" y="-283.4814" font-family="Arial" font-size="10.00" fill="#ffffff">2.87%</text>
<text text-anchor="middle" x="91.1787" y="-271.9824" font-family="Arial" font-size="10.00" fill="#ffffff">(1.90%)</text>
<text text-anchor="middle" x="91.1787" y="-260.4834" font-family="Arial" font-size="10.00" fill="#ffffff">1×</text>
</a>
</g>
</g>
<!-- 583 -->
<g id="node2" class="node">
<title>583</title>
<g id="a_node2"><a xlink:title="~">
<polygon fill="#0d1174" stroke="#0d1174" points="182.5365,-53.9941 -.1791,-53.9941 -.1791,-.002 182.5365,-.002 182.5365,-53.9941"/>
<text text-anchor="middle" x="91.1787" y="-41.9961" font-family="Arial" font-size="10.00" fill="#ffffff">~:0:&lt;method &#39;append&#39; of &#39;list&#39; objects&gt;</text>
<text text-anchor="middle" x="91.1787" y="-30.4971" font-family="Arial" font-size="10.00" fill="#ffffff">0.99%</text>
<text text-anchor="middle" x="91.1787" y="-18.998" font-family="Arial" font-size="10.00" fill="#ffffff">(0.99%)</text>
<text text-anchor="middle" x="91.1787" y="-7.499" font-family="Arial" font-size="10.00" fill="#ffffff">3328319×</text>
</a>
</g>
</g>
<!-- 53&#45;&gt;583 -->
<g id="edge1" class="edge">
<title>53&#45;&gt;583</title>
<path fill="none" stroke="#0d0d73" stroke-width=".5" d="M91.1787,-252.9087C91.1787,-205.482 91.1787,-107.6835 91.1787,-57.7692"/>
<polygon fill="#0d0d73" stroke="#0d0d73" stroke-width=".5" points="92.4038,-57.7595 91.1787,-54.2595 89.9538,-57.7596 92.4038,-57.7595"/>
<text text-anchor="middle" x="110.7832" y="-172.9883" font-family="Arial" font-size="10.00" fill="#0d0d73">0.17%</text>
<text text-anchor="middle" x="110.7832" y="-161.4893" font-family="Arial" font-size="10.00" fill="#0d0d73">459218×</text>
</g>
<!-- 54 -->
<g id="node3" class="node">
<title>54</title>
<g id="a_node3"><a xlink:title="gmres_example.py">
<polygon fill="#ff0000" stroke="#ff0000" points="194.4172,-464.9688 51.9402,-464.9688 51.9402,-410.9766 194.4172,-410.9766 194.4172,-464.9688"/>
<text text-anchor="middle" x="123.1787" y="-452.9707" font-family="Arial" font-size="10.00" fill="#ffffff">gmres_example:1:&lt;module&gt;</text>
<text text-anchor="middle" x="123.1787" y="-441.4717" font-family="Arial" font-size="10.00" fill="#ffffff">100.00%</text>
<text text-anchor="middle" x="123.1787" y="-429.9727" font-family="Arial" font-size="10.00" fill="#ffffff">(0.05%)</text>
<text text-anchor="middle" x="123.1787" y="-418.4736" font-family="Arial" font-size="10.00" fill="#ffffff">1×</text>
</a>
</g>
</g>
<!-- 54&#45;&gt;53 -->
<g id="edge2" class="edge">
<title>54&#45;&gt;53</title>
<path fill="none" stroke="#0d1976" stroke-width=".5" d="M114.2187,-410.9597C113.35,-407.9447 112.5308,-404.9051 111.8242,-401.9746 104.434,-371.3238 98.7312,-335.7167 95.2103,-310.9131"/>
<polygon fill="#0d1976" stroke="#0d1976" stroke-width=".5" points="96.4075,-310.629 94.7068,-307.3338 93.9814,-310.9704 96.4075,-310.629"/>
<text text-anchor="middle" x="126.356" y="-393.9746" font-family="Arial" font-size="10.00" fill="#0d1976">2.87%</text>
<text text-anchor="middle" x="126.356" y="-382.4756" font-family="Arial" font-size="10.00" fill="#0d1976">1×</text>
</g>
<!-- 324 -->
<g id="node4" class="node">
<title>324</title>
<g id="a_node4"><a xlink:title="gmrescrs.py">
<polygon fill="#fa2101" stroke="#fa2101" points="223.8165,-369.9746 126.5409,-369.9746 126.5409,-315.9824 223.8165,-315.9824 223.8165,-369.9746"/>
<text text-anchor="middle" x="175.1787" y="-357.9766" font-family="Arial" font-size="10.00" fill="#ffffff">gmrescrs:22:solve</text>
<text text-anchor="middle" x="175.1787" y="-346.4775" font-family="Arial" font-size="10.00" fill="#ffffff">96.77%</text>
<text text-anchor="middle" x="175.1787" y="-334.9785" font-family="Arial" font-size="10.00" fill="#ffffff">(0.04%)</text>
<text text-anchor="middle" x="175.1787" y="-323.4795" font-family="Arial" font-size="10.00" fill="#ffffff">1×</text>
</a>
</g>
</g>
<!-- 54&#45;&gt;324 -->
<g id="edge3" class="edge">
<title>54&#45;&gt;324</title>
<path fill="none" stroke="#fa2101" stroke-width="3.87" d="M138.0798,-410.7511C143.5194,-400.8141 149.7569,-389.4193 155.5457,-378.8443"/>
<polygon fill="#fa2101" stroke="#fa2101" stroke-width="3.87" points="158.5784,-380.4473 160.2754,-370.204 152.561,-377.1533 158.5784,-380.4473"/>
<text text-anchor="middle" x="172.1367" y="-393.9746" font-family="Arial" font-size="10.00" fill="#fa2101">96.77%</text>
<text text-anchor="middle" x="172.1367" y="-382.4756" font-family="Arial" font-size="10.00" fill="#fa2101">1×</text>
</g>
<!-- 104 -->
<g id="node5" class="node">
<title>104</title>
<g id="a_node5"><a xlink:title="gmrescrs.py">
<polygon fill="#7fcb07" stroke="#7fcb07" points="240.0108,-243.9824 106.3466,-243.9824 106.3466,-189.9902 240.0108,-189.9902 240.0108,-243.9824"/>
<text text-anchor="middle" x="173.1787" y="-231.9844" font-family="Arial" font-size="10.00" fill="#ffffff">gmrescrs:66:next_iteration</text>
<text text-anchor="middle" x="173.1787" y="-220.4854" font-family="Arial" font-size="10.00" fill="#ffffff">65.27%</text>
<text text-anchor="middle" x="173.1787" y="-208.9863" font-family="Arial" font-size="10.00" fill="#ffffff">(0.15%)</text>
<text text-anchor="middle" x="173.1787" y="-197.4873" font-family="Arial" font-size="10.00" fill="#ffffff">160×</text>
</a>
</g>
</g>
<!-- 324&#45;&gt;104 -->
<g id="edge9" class="edge">
<title>324&#45;&gt;104</title>
<path fill="none" stroke="#7fcb07" stroke-width="2.61" d="M174.7497,-315.95C174.4564,-297.4759 174.0646,-272.7954 173.7457,-252.7033"/>
<polygon fill="#7fcb07" stroke="#7fcb07" stroke-width="2.61" points="176.5773,-252.4588 173.614,-244.4049 170.908,-252.5489 176.5773,-252.4588"/>
<text text-anchor="middle" x="191.1367" y="-283.4814" font-family="Arial" font-size="10.00" fill="#7fcb07">65.27%</text>
<text text-anchor="middle" x="191.1367" y="-271.9824" font-family="Arial" font-size="10.00" fill="#7fcb07">160×</text>
</g>
<!-- 178 -->
<g id="node9" class="node">
<title>178</title>
<g id="a_node9"><a xlink:title="gmrescrs.py">
<polygon fill="#0b9c77" stroke="#0b9c77" points="379.7178,-243.9824 248.6396,-243.9824 248.6396,-189.9902 379.7178,-189.9902 379.7178,-243.9824"/>
<text text-anchor="middle" x="314.1787" y="-231.9844" font-family="Arial" font-size="10.00" fill="#ffffff">gmrescrs:51:first_iteration</text>
<text text-anchor="middle" x="314.1787" y="-220.4854" font-family="Arial" font-size="10.00" fill="#ffffff">31.44%</text>
<text text-anchor="middle" x="314.1787" y="-208.9863" font-family="Arial" font-size="10.00" fill="#ffffff">(0.04%)</text>
<text text-anchor="middle" x="314.1787" y="-197.4873" font-family="Arial" font-size="10.00" fill="#ffffff">40×</text>
</a>
</g>
</g>
<!-- 324&#45;&gt;178 -->
<g id="edge10" class="edge">
<title>324&#45;&gt;178</title>
<path fill="none" stroke="#0b9c77" stroke-width="1.26" d="M204.9977,-315.95C226.926,-296.0738 256.7801,-269.0135 279.7283,-248.2128"/>
<polygon fill="#0b9c77" stroke="#0b9c77" stroke-width="1.26" points="281.0965,-249.618 283.9294,-244.4049 278.4639,-246.7136 281.0965,-249.618"/>
<text text-anchor="middle" x="289.1367" y="-283.4814" font-family="Arial" font-size="10.00" fill="#0b9c77">31.44%</text>
<text text-anchor="middle" x="289.1367" y="-271.9824" font-family="Arial" font-size="10.00" fill="#0b9c77">40×</text>
</g>
<!-- 177 -->
<g id="node6" class="node">
<title>177</title>
<g id="a_node6"><a xlink:title="crsmatrix.py">
<polygon fill="#f82c01" stroke="#f82c01" points="377.0581,-148.9883 227.2993,-148.9883 227.2993,-94.9961 377.0581,-94.9961 377.0581,-148.9883"/>
<text text-anchor="middle" x="302.1787" y="-136.9902" font-family="Arial" font-size="10.00" fill="#ffffff">crsmatrix:162:mult_left_vector</text>
<text text-anchor="middle" x="302.1787" y="-125.4912" font-family="Arial" font-size="10.00" fill="#ffffff">95.66%</text>
<text text-anchor="middle" x="302.1787" y="-113.9922" font-family="Arial" font-size="10.00" fill="#ffffff">(75.69%)</text>
<text text-anchor="middle" x="302.1787" y="-102.4932" font-family="Arial" font-size="10.00" fill="#ffffff">240×</text>
</a>
</g>
</g>
<!-- 104&#45;&gt;177 -->
<g id="edge4" class="edge">
<title>104&#45;&gt;177</title>
<path fill="none" stroke="#76ca07" stroke-width="2.57" d="M210.1449,-189.7648C225.2586,-178.6353 242.8553,-165.6773 258.5902,-154.0903"/>
<polygon fill="#76ca07" stroke="#76ca07" stroke-width="2.57" points="260.4255,-156.2161 265.2071,-149.2177 257.1049,-151.7068 260.4255,-156.2161"/>
<text text-anchor="middle" x="269.1367" y="-172.9883" font-family="Arial" font-size="10.00" fill="#76ca07">64.27%</text>
<text text-anchor="middle" x="269.1367" y="-161.4893" font-family="Arial" font-size="10.00" fill="#76ca07">160×</text>
</g>
<!-- 177&#45;&gt;583 -->
<g id="edge7" class="edge">
<title>177&#45;&gt;583</title>
<path fill="none" stroke="#0d1074" stroke-width=".5" d="M241.997,-94.8978C214.7243,-82.6194 182.463,-68.0951 154.7916,-55.6371"/>
<polygon fill="#0d1074" stroke="#0d1074" stroke-width=".5" points="155.1348,-54.4483 151.4404,-54.1284 154.129,-56.6823 155.1348,-54.4483"/>
<text text-anchor="middle" x="243.564" y="-77.9941" font-family="Arial" font-size="10.00" fill="#0d1074">0.82%</text>
<text text-anchor="middle" x="243.564" y="-66.4951" font-family="Arial" font-size="10.00" fill="#0d1074">2867520×</text>
</g>
<!-- 440 -->
<g id="node7" class="node">
<title>440</title>
<g id="a_node7"><a xlink:title="~">
<polygon fill="#0d4d84" stroke="#0d4d84" points="412.7943,-53.9941 191.5631,-53.9941 191.5631,-.002 412.7943,-.002 412.7943,-53.9941"/>
<text text-anchor="middle" x="302.1787" y="-41.9961" font-family="Arial" font-size="10.00" fill="#ffffff">~:0:&lt;method &#39;item&#39; of &#39;numpy.ndarray&#39; objects&gt;</text>
<text text-anchor="middle" x="302.1787" y="-30.4971" font-family="Arial" font-size="10.00" fill="#ffffff">13.46%</text>
<text text-anchor="middle" x="302.1787" y="-18.998" font-family="Arial" font-size="10.00" fill="#ffffff">(13.46%)</text>
<text text-anchor="middle" x="302.1787" y="-7.499" font-family="Arial" font-size="10.00" fill="#ffffff">35781600×</text>
</a>
</g>
</g>
<!-- 177&#45;&gt;440 -->
<g id="edge5" class="edge">
<title>177&#45;&gt;440</title>
<path fill="none" stroke="#0d4d84" stroke-width=".54" d="M302.1787,-94.7707C302.1787,-83.343 302.1787,-69.9876 302.1787,-58.168"/>
<polygon fill="#0d4d84" stroke="#0d4d84" stroke-width=".54" points="303.4738,-57.9235 302.1787,-54.2235 300.8838,-57.9236 303.4738,-57.9235"/>
<text text-anchor="middle" x="327.3447" y="-77.9941" font-family="Arial" font-size="10.00" fill="#0d4d84">13.46%</text>
<text text-anchor="middle" x="327.3447" y="-66.4951" font-family="Arial" font-size="10.00" fill="#0d4d84">35781600×</text>
</g>
<!-- 502 -->
<g id="node8" class="node">
<title>502</title>
<g id="a_node8"><a xlink:title="~">
<polygon fill="#0d247a" stroke="#0d247a" points="492.3929,-53.9941 421.9645,-53.9941 421.9645,-.002 492.3929,-.002 492.3929,-53.9941"/>
<text text-anchor="middle" x="457.1787" y="-41.9961" font-family="Arial" font-size="10.00" fill="#ffffff">~:0:&lt;range&gt;</text>
<text text-anchor="middle" x="457.1787" y="-30.4971" font-family="Arial" font-size="10.00" fill="#ffffff">5.31%</text>
<text text-anchor="middle" x="457.1787" y="-18.998" font-family="Arial" font-size="10.00" fill="#ffffff">(5.31%)</text>
<text text-anchor="middle" x="457.1787" y="-7.499" font-family="Arial" font-size="10.00" fill="#ffffff">2868574×</text>
</a>
</g>
</g>
<!-- 177&#45;&gt;502 -->
<g id="edge6" class="edge">
<title>177&#45;&gt;502</title>
<path fill="none" stroke="#0d247a" stroke-width=".5" d="M349.2828,-94.9943C370.2451,-82.7615 395.1244,-67.9415 417.1787,-53.9961 417.7629,-53.6267 418.351,-53.253 418.9421,-52.8758"/>
<polygon fill="#0d247a" stroke="#0d247a" stroke-width=".5" points="419.6367,-53.8857 421.9191,-50.963 418.3123,-51.8245 419.6367,-53.8857"/>
<text text-anchor="middle" x="423.564" y="-77.9941" font-family="Arial" font-size="10.00" fill="#0d247a">5.31%</text>
<text text-anchor="middle" x="423.564" y="-66.4951" font-family="Arial" font-size="10.00" fill="#0d247a">2867760×</text>
</g>
<!-- 178&#45;&gt;177 -->
<g id="edge8" class="edge">
<title>178&#45;&gt;177</title>
<path fill="none" stroke="#0b9c77" stroke-width="1.26" d="M310.74,-189.7648C309.3717,-178.9334 307.7847,-166.3701 306.3514,-155.0242"/>
<polygon fill="#0b9c77" stroke="#0b9c77" stroke-width="1.26" points="308.2644,-154.5278 305.6179,-149.2177 304.3753,-155.0192 308.2644,-154.5278"/>
<text text-anchor="middle" x="326.1367" y="-172.9883" font-family="Arial" font-size="10.00" fill="#0b9c77">31.39%</text>
<text text-anchor="middle" x="326.1367" y="-161.4893" font-family="Arial" font-size="10.00" fill="#0b9c77">80×</text>
</g>
</g>
</svg>
