<?xml version="1.0" encoding="UTF-8" standalone="no"?>
<!DOCTYPE svg PUBLIC "-//W3C//DTD SVG 1.1//EN"
 "http://www.w3.org/Graphics/SVG/1.1/DTD/svg11.dtd">
<!-- Generated by graphviz version 2.40.1 (20161225.0304)
 -->
<!-- Title: %3 Pages: 1 -->
<svg width="1313pt" height="537pt"
 viewBox="0.00 0.00 1312.78 536.97" xmlns="http://www.w3.org/2000/svg" xmlns:xlink="http://www.w3.org/1999/xlink">
<g id="graph0" class="graph" transform="scale(1 1) rotate(0) translate(4 532.9668)">
<title>%3</title>
<polygon fill="#ffffff" stroke="transparent" points="-4,4 -4,-532.9668 1308.7788,-532.9668 1308.7788,4 -4,4"/>
<!-- 53 -->
<g id="node1" class="node">
<title>53</title>
<g id="a_node1"><a xlink:title="crsmatrix.py">
<polygon fill="#0d1174" stroke="#0d1174" points="408.0386,-433.9707 268.3189,-433.9707 268.3189,-379.9785 408.0386,-379.9785 408.0386,-433.9707"/>
<text text-anchor="middle" x="338.1787" y="-421.9727" font-family="Arial" font-size="10.00" fill="#ffffff">crsmatrix:104:from_mm_file</text>
<text text-anchor="middle" x="338.1787" y="-410.4736" font-family="Arial" font-size="10.00" fill="#ffffff">1.10%</text>
<text text-anchor="middle" x="338.1787" y="-398.9746" font-family="Arial" font-size="10.00" fill="#ffffff">(0.75%)</text>
<text text-anchor="middle" x="338.1787" y="-387.4756" font-family="Arial" font-size="10.00" fill="#ffffff">1×</text>
</a>
</g>
</g>
<!-- 54 -->
<g id="node2" class="node">
<title>54</title>
<g id="a_node2"><a xlink:title="gmres_example.py">
<polygon fill="#ff0000" stroke="#ff0000" points="430.4172,-528.9648 287.9402,-528.9648 287.9402,-474.9727 430.4172,-474.9727 430.4172,-528.9648"/>
<text text-anchor="middle" x="359.1787" y="-516.9668" font-family="Arial" font-size="10.00" fill="#ffffff">gmres_example:1:&lt;module&gt;</text>
<text text-anchor="middle" x="359.1787" y="-505.4678" font-family="Arial" font-size="10.00" fill="#ffffff">100.00%</text>
<text text-anchor="middle" x="359.1787" y="-493.9688" font-family="Arial" font-size="10.00" fill="#ffffff">(0.03%)</text>
<text text-anchor="middle" x="359.1787" y="-482.4697" font-family="Arial" font-size="10.00" fill="#ffffff">1×</text>
</a>
</g>
</g>
<!-- 54&#45;&gt;53 -->
<g id="edge1" class="edge">
<title>54&#45;&gt;53</title>
<path fill="none" stroke="#0d1174" stroke-width=".5" d="M353.161,-474.7472C350.6127,-463.2202 347.6309,-449.7318 345.0013,-437.8366"/>
<polygon fill="#0d1174" stroke="#0d1174" stroke-width=".5" points="346.149,-437.3531 344.1973,-434.2001 343.7568,-437.882 346.149,-437.3531"/>
<text text-anchor="middle" x="365.356" y="-457.9707" font-family="Arial" font-size="10.00" fill="#0d1174">1.10%</text>
<text text-anchor="middle" x="365.356" y="-446.4717" font-family="Arial" font-size="10.00" fill="#0d1174">1×</text>
</g>
<!-- 323 -->
<g id="node3" class="node">
<title>323</title>
<g id="a_node3"><a xlink:title="gmrescrs.py">
<polygon fill="#fd0e00" stroke="#fd0e00" points="513.8165,-433.9707 416.5409,-433.9707 416.5409,-379.9785 513.8165,-379.9785 513.8165,-433.9707"/>
<text text-anchor="middle" x="465.1787" y="-421.9727" font-family="Arial" font-size="10.00" fill="#ffffff">gmrescrs:22:solve</text>
<text text-anchor="middle" x="465.1787" y="-410.4736" font-family="Arial" font-size="10.00" fill="#ffffff">98.70%</text>
<text text-anchor="middle" x="465.1787" y="-398.9746" font-family="Arial" font-size="10.00" fill="#ffffff">(1.32%)</text>
<text text-anchor="middle" x="465.1787" y="-387.4756" font-family="Arial" font-size="10.00" fill="#ffffff">1×</text>
</a>
</g>
</g>
<!-- 54&#45;&gt;323 -->
<g id="edge2" class="edge">
<title>54&#45;&gt;323</title>
<path fill="none" stroke="#fd0e00" stroke-width="3.95" d="M389.5541,-474.7472C401.3078,-464.2139 414.889,-452.0428 427.2712,-440.9462"/>
<polygon fill="#fd0e00" stroke="#fd0e00" stroke-width="3.95" points="429.7388,-443.3877 434.7989,-434.2001 425.1138,-438.2268 429.7388,-443.3877"/>
<text text-anchor="middle" x="442.1367" y="-457.9707" font-family="Arial" font-size="10.00" fill="#fd0e00">98.70%</text>
<text text-anchor="middle" x="442.1367" y="-446.4717" font-family="Arial" font-size="10.00" fill="#fd0e00">1×</text>
</g>
<!-- 104 -->
<g id="node8" class="node">
<title>104</title>
<g id="a_node8"><a xlink:title="gmrescrs.py">
<polygon fill="#fa2301" stroke="#fa2301" points="655.0108,-338.9766 521.3466,-338.9766 521.3466,-284.9844 655.0108,-284.9844 655.0108,-338.9766"/>
<text text-anchor="middle" x="588.1787" y="-326.9785" font-family="Arial" font-size="10.00" fill="#ffffff">gmrescrs:66:next_iteration</text>
<text text-anchor="middle" x="588.1787" y="-315.4795" font-family="Arial" font-size="10.00" fill="#ffffff">96.53%</text>
<text text-anchor="middle" x="588.1787" y="-303.9805" font-family="Arial" font-size="10.00" fill="#ffffff">(1.87%)</text>
<text text-anchor="middle" x="588.1787" y="-292.4814" font-family="Arial" font-size="10.00" fill="#ffffff">198×</text>
</a>
</g>
</g>
<!-- 323&#45;&gt;104 -->
<g id="edge17" class="edge">
<title>323&#45;&gt;104</title>
<path fill="none" stroke="#fa2301" stroke-width="3.86" d="M500.4256,-379.7531C514.3216,-369.021 530.4191,-356.5888 545.0035,-345.3251"/>
<polygon fill="#fa2301" stroke="#fa2301" stroke-width="3.86" points="547.2671,-347.9108 552.9267,-339.206 543.074,-342.4815 547.2671,-347.9108"/>
<text text-anchor="middle" x="559.1367" y="-362.9766" font-family="Arial" font-size="10.00" fill="#fa2301">96.53%</text>
<text text-anchor="middle" x="559.1367" y="-351.4775" font-family="Arial" font-size="10.00" fill="#fa2301">198×</text>
</g>
<!-- 178 -->
<g id="node17" class="node">
<title>178</title>
<g id="a_node17"><a xlink:title="gmrescrs.py">
<polygon fill="#0d1074" stroke="#0d1074" points="448.7178,-338.9766 317.6396,-338.9766 317.6396,-284.9844 448.7178,-284.9844 448.7178,-338.9766"/>
<text text-anchor="middle" x="383.1787" y="-326.9785" font-family="Arial" font-size="10.00" fill="#ffffff">gmrescrs:51:first_iteration</text>
<text text-anchor="middle" x="383.1787" y="-315.4795" font-family="Arial" font-size="10.00" fill="#ffffff">0.83%</text>
<text text-anchor="middle" x="383.1787" y="-303.9805" font-family="Arial" font-size="10.00" fill="#ffffff">(0.00%)</text>
<text text-anchor="middle" x="383.1787" y="-292.4814" font-family="Arial" font-size="10.00" fill="#ffffff">2×</text>
</a>
</g>
</g>
<!-- 323&#45;&gt;178 -->
<g id="edge18" class="edge">
<title>323&#45;&gt;178</title>
<path fill="none" stroke="#0d1074" stroke-width=".5" d="M441.6808,-379.7531C431.4732,-367.928 419.4838,-354.0386 409.0253,-341.9228"/>
<polygon fill="#0d1074" stroke="#0d1074" stroke-width=".5" points="409.8944,-341.0549 406.6801,-339.206 408.0398,-342.6559 409.8944,-341.0549"/>
<text text-anchor="middle" x="448.356" y="-362.9766" font-family="Arial" font-size="10.00" fill="#0d1074">0.83%</text>
<text text-anchor="middle" x="448.356" y="-351.4775" font-family="Arial" font-size="10.00" fill="#0d1074">2×</text>
</g>
<!-- 66 -->
<g id="node4" class="node">
<title>66</title>
<g id="a_node4"><a xlink:title="/usr/local/lib/python2.7/site&#45;packages/numpy/linalg/linalg.py">
<polygon fill="#0ba068" stroke="#0ba068" points="1064.6628,-243.9824 993.6946,-243.9824 993.6946,-189.9902 1064.6628,-189.9902 1064.6628,-243.9824"/>
<text text-anchor="middle" x="1029.1787" y="-231.9844" font-family="Arial" font-size="10.00" fill="#ffffff">linalg:617:qr</text>
<text text-anchor="middle" x="1029.1787" y="-220.4854" font-family="Arial" font-size="10.00" fill="#ffffff">34.38%</text>
<text text-anchor="middle" x="1029.1787" y="-208.9863" font-family="Arial" font-size="10.00" fill="#ffffff">(1.89%)</text>
<text text-anchor="middle" x="1029.1787" y="-197.4873" font-family="Arial" font-size="10.00" fill="#ffffff">198×</text>
</a>
</g>
</g>
<!-- 195 -->
<g id="node5" class="node">
<title>195</title>
<g id="a_node5"><a xlink:title="/usr/local/lib/python2.7/site&#45;packages/numpy/linalg/linalg.py">
<polygon fill="#0d2079" stroke="#0d2079" points="1114.9621,-148.9883 943.3953,-148.9883 943.3953,-94.9961 1114.9621,-94.9961 1114.9621,-148.9883"/>
<text text-anchor="middle" x="1029.1787" y="-136.9902" font-family="Arial" font-size="10.00" fill="#ffffff">linalg:180:_fastCopyAndTranspose</text>
<text text-anchor="middle" x="1029.1787" y="-125.4912" font-family="Arial" font-size="10.00" fill="#ffffff">4.50%</text>
<text text-anchor="middle" x="1029.1787" y="-113.9922" font-family="Arial" font-size="10.00" fill="#ffffff">(0.02%)</text>
<text text-anchor="middle" x="1029.1787" y="-102.4932" font-family="Arial" font-size="10.00" fill="#ffffff">594×</text>
</a>
</g>
</g>
<!-- 66&#45;&gt;195 -->
<g id="edge3" class="edge">
<title>66&#45;&gt;195</title>
<path fill="none" stroke="#0d2079" stroke-width=".5" d="M1029.1787,-189.7648C1029.1787,-178.2378 1029.1787,-164.7494 1029.1787,-152.8542"/>
<polygon fill="#0d2079" stroke="#0d2079" stroke-width=".5" points="1030.4038,-152.7176 1029.1787,-149.2177 1027.9538,-152.7177 1030.4038,-152.7176"/>
<text text-anchor="middle" x="1043.356" y="-172.9883" font-family="Arial" font-size="10.00" fill="#0d2079">4.50%</text>
<text text-anchor="middle" x="1043.356" y="-161.4893" font-family="Arial" font-size="10.00" fill="#0d2079">594×</text>
</g>
<!-- 521 -->
<g id="node6" class="node">
<title>521</title>
<g id="a_node6"><a xlink:title="~">
<polygon fill="#0c5285" stroke="#0c5285" points="1304.879,-148.9883 1123.4784,-148.9883 1123.4784,-94.9961 1304.879,-94.9961 1304.879,-148.9883"/>
<text text-anchor="middle" x="1214.1787" y="-136.9902" font-family="Arial" font-size="10.00" fill="#ffffff">~:0:&lt;numpy.linalg.lapack_lite.dgeqrf&gt;</text>
<text text-anchor="middle" x="1214.1787" y="-125.4912" font-family="Arial" font-size="10.00" fill="#ffffff">14.29%</text>
<text text-anchor="middle" x="1214.1787" y="-113.9922" font-family="Arial" font-size="10.00" fill="#ffffff">(14.29%)</text>
<text text-anchor="middle" x="1214.1787" y="-102.4932" font-family="Arial" font-size="10.00" fill="#ffffff">396×</text>
</a>
</g>
</g>
<!-- 66&#45;&gt;521 -->
<g id="edge4" class="edge">
<title>66&#45;&gt;521</title>
<path fill="none" stroke="#0c5285" stroke-width=".57" d="M1064.8486,-198.6705C1091.1825,-185.1485 1127.5496,-166.4747 1157.8013,-150.941"/>
<polygon fill="#0c5285" stroke="#0c5285" stroke-width=".57" points="1158.6862,-151.9817 1161.4591,-149.0627 1157.4712,-149.6154 1158.6862,-151.9817"/>
<text text-anchor="middle" x="1160.1367" y="-172.9883" font-family="Arial" font-size="10.00" fill="#0c5285">14.29%</text>
<text text-anchor="middle" x="1160.1367" y="-161.4893" font-family="Arial" font-size="10.00" fill="#0c5285">396×</text>
</g>
<!-- 546 -->
<g id="node7" class="node">
<title>546</title>
<g id="a_node7"><a xlink:title="~">
<polygon fill="#0d4e84" stroke="#0d4e84" points="933.9308,-148.9883 752.4266,-148.9883 752.4266,-94.9961 933.9308,-94.9961 933.9308,-148.9883"/>
<text text-anchor="middle" x="843.1787" y="-136.9902" font-family="Arial" font-size="10.00" fill="#ffffff">~:0:&lt;numpy.linalg.lapack_lite.dorgqr&gt;</text>
<text text-anchor="middle" x="843.1787" y="-125.4912" font-family="Arial" font-size="10.00" fill="#ffffff">13.60%</text>
<text text-anchor="middle" x="843.1787" y="-113.9922" font-family="Arial" font-size="10.00" fill="#ffffff">(13.60%)</text>
<text text-anchor="middle" x="843.1787" y="-102.4932" font-family="Arial" font-size="10.00" fill="#ffffff">396×</text>
</a>
</g>
</g>
<!-- 66&#45;&gt;546 -->
<g id="edge5" class="edge">
<title>66&#45;&gt;546</title>
<path fill="none" stroke="#0d4e84" stroke-width=".54" d="M993.5915,-192.5603C992.1119,-191.6742 990.6372,-190.8133 989.1787,-189.9883 964.2423,-175.8828 935.879,-162.1761 910.8267,-150.8085"/>
<polygon fill="#0d4e84" stroke="#0d4e84" stroke-width=".54" points="911.0602,-149.4929 907.1552,-149.1485 909.9931,-151.8529 911.0602,-149.4929"/>
<text text-anchor="middle" x="986.1367" y="-172.9883" font-family="Arial" font-size="10.00" fill="#0d4e84">13.60%</text>
<text text-anchor="middle" x="986.1367" y="-161.4893" font-family="Arial" font-size="10.00" fill="#0d4e84">396×</text>
</g>
<!-- 454 -->
<g id="node18" class="node">
<title>454</title>
<g id="a_node18"><a xlink:title="~">
<polygon fill="#0d2078" stroke="#0d2078" points="1156.224,-53.9941 902.1334,-53.9941 902.1334,-.002 1156.224,-.002 1156.224,-53.9941"/>
<text text-anchor="middle" x="1029.1787" y="-41.9961" font-family="Arial" font-size="10.00" fill="#ffffff">~:0:&lt;numpy.core.multiarray._fastCopyAndTranspose&gt;</text>
<text text-anchor="middle" x="1029.1787" y="-30.4971" font-family="Arial" font-size="10.00" fill="#ffffff">4.48%</text>
<text text-anchor="middle" x="1029.1787" y="-18.998" font-family="Arial" font-size="10.00" fill="#ffffff">(4.48%)</text>
<text text-anchor="middle" x="1029.1787" y="-7.499" font-family="Arial" font-size="10.00" fill="#ffffff">594×</text>
</a>
</g>
</g>
<!-- 195&#45;&gt;454 -->
<g id="edge16" class="edge">
<title>195&#45;&gt;454</title>
<path fill="none" stroke="#0d2078" stroke-width=".5" d="M1029.1787,-94.7707C1029.1787,-83.2436 1029.1787,-69.7552 1029.1787,-57.86"/>
<polygon fill="#0d2078" stroke="#0d2078" stroke-width=".5" points="1030.4038,-57.7235 1029.1787,-54.2235 1027.9538,-57.7236 1030.4038,-57.7235"/>
<text text-anchor="middle" x="1043.356" y="-77.9941" font-family="Arial" font-size="10.00" fill="#0d2078">4.48%</text>
<text text-anchor="middle" x="1043.356" y="-66.4951" font-family="Arial" font-size="10.00" fill="#0d2078">594×</text>
</g>
<!-- 104&#45;&gt;66 -->
<g id="edge6" class="edge">
<title>104&#45;&gt;66</title>
<path fill="none" stroke="#0ba068" stroke-width="1.38" d="M655.0998,-309.296C735.3157,-304.1802 872.7873,-289.3232 988.0212,-244.2343"/>
<polygon fill="#0ba068" stroke="#0ba068" stroke-width="1.38" points="989.1163,-246.0214 993.8379,-241.9248 987.5922,-242.1829 989.1163,-246.0214"/>
<text text-anchor="middle" x="975.1367" y="-267.9824" font-family="Arial" font-size="10.00" fill="#0ba068">34.38%</text>
<text text-anchor="middle" x="975.1367" y="-256.4834" font-family="Arial" font-size="10.00" fill="#0ba068">198×</text>
</g>
<!-- 177 -->
<g id="node9" class="node">
<title>177</title>
<g id="a_node9"><a xlink:title="crsmatrix.py">
<polygon fill="#1cb909" stroke="#1cb909" points="377.0581,-243.9824 227.2993,-243.9824 227.2993,-189.9902 377.0581,-189.9902 377.0581,-243.9824"/>
<text text-anchor="middle" x="302.1787" y="-231.9844" font-family="Arial" font-size="10.00" fill="#ffffff">crsmatrix:162:mult_left_vector</text>
<text text-anchor="middle" x="302.1787" y="-220.4854" font-family="Arial" font-size="10.00" fill="#ffffff">52.61%</text>
<text text-anchor="middle" x="302.1787" y="-208.9863" font-family="Arial" font-size="10.00" fill="#ffffff">(41.74%)</text>
<text text-anchor="middle" x="302.1787" y="-197.4873" font-family="Arial" font-size="10.00" fill="#ffffff">202×</text>
</a>
</g>
</g>
<!-- 104&#45;&gt;177 -->
<g id="edge7" class="edge">
<title>104&#45;&gt;177</title>
<path fill="none" stroke="#16b809" stroke-width="2.07" d="M521.3437,-292.3307C504.312,-287.1637 486.0708,-281.4907 469.2627,-275.9824 441.1008,-266.7533 410.4733,-256.1157 383.2239,-246.4367"/>
<polygon fill="#16b809" stroke="#16b809" stroke-width="2.07" points="384.0007,-244.0383 376.3725,-243.998 382.3106,-248.7865 384.0007,-244.0383"/>
<text text-anchor="middle" x="487.1367" y="-267.9824" font-family="Arial" font-size="10.00" fill="#16b809">51.79%</text>
<text text-anchor="middle" x="487.1367" y="-256.4834" font-family="Arial" font-size="10.00" fill="#16b809">198×</text>
</g>
<!-- 183 -->
<g id="node10" class="node">
<title>183</title>
<g id="a_node10"><a xlink:title="/usr/local/lib/python2.7/site&#45;packages/numpy/matrixlib/defmatrix.py">
<polygon fill="#0d1375" stroke="#0d1375" points="520.5826,-243.9824 385.7748,-243.9824 385.7748,-189.9902 520.5826,-189.9902 520.5826,-243.9824"/>
<text text-anchor="middle" x="453.1787" y="-231.9844" font-family="Arial" font-size="10.00" fill="#ffffff">defmatrix:314:__getitem__</text>
<text text-anchor="middle" x="453.1787" y="-220.4854" font-family="Arial" font-size="10.00" fill="#ffffff">1.51%</text>
<text text-anchor="middle" x="453.1787" y="-208.9863" font-family="Arial" font-size="10.00" fill="#ffffff">(1.12%)</text>
<text text-anchor="middle" x="453.1787" y="-197.4873" font-family="Arial" font-size="10.00" fill="#ffffff">373494×</text>
</a>
</g>
</g>
<!-- 104&#45;&gt;183 -->
<g id="edge8" class="edge">
<title>104&#45;&gt;183</title>
<path fill="none" stroke="#0d1275" stroke-width=".5" d="M549.4931,-284.759C532.4055,-272.7351 512.285,-258.5771 494.865,-246.3193"/>
<polygon fill="#0d1275" stroke="#0d1275" stroke-width=".5" points="495.4373,-245.2242 491.8699,-244.2118 494.0274,-247.2278 495.4373,-245.2242"/>
<text text-anchor="middle" x="556.7832" y="-267.9824" font-family="Arial" font-size="10.00" fill="#0d1275">1.37%</text>
<text text-anchor="middle" x="556.7832" y="-256.4834" font-family="Arial" font-size="10.00" fill="#0d1275">363594×</text>
</g>
<!-- 344 -->
<g id="node11" class="node">
<title>344</title>
<g id="a_node11"><a xlink:title="/usr/local/lib/python2.7/site&#45;packages/numpy/matrixlib/defmatrix.py">
<polygon fill="#0d1676" stroke="#0d1676" points="646.9027,-243.9824 529.4548,-243.9824 529.4548,-189.9902 646.9027,-189.9902 646.9027,-243.9824"/>
<text text-anchor="middle" x="588.1787" y="-231.9844" font-family="Arial" font-size="10.00" fill="#ffffff">defmatrix:340:__mul__</text>
<text text-anchor="middle" x="588.1787" y="-220.4854" font-family="Arial" font-size="10.00" fill="#ffffff">2.19%</text>
<text text-anchor="middle" x="588.1787" y="-208.9863" font-family="Arial" font-size="10.00" fill="#ffffff">(0.05%)</text>
<text text-anchor="middle" x="588.1787" y="-197.4873" font-family="Arial" font-size="10.00" fill="#ffffff">10498×</text>
</a>
</g>
</g>
<!-- 104&#45;&gt;344 -->
<g id="edge9" class="edge">
<title>104&#45;&gt;344</title>
<path fill="none" stroke="#0d1676" stroke-width=".5" d="M588.1787,-284.759C588.1787,-273.2319 588.1787,-259.7435 588.1787,-247.8483"/>
<polygon fill="#0d1676" stroke="#0d1676" stroke-width=".5" points="589.4038,-247.7118 588.1787,-244.2118 586.9538,-247.7118 589.4038,-247.7118"/>
<text text-anchor="middle" x="605.0024" y="-267.9824" font-family="Arial" font-size="10.00" fill="#0d1676">2.19%</text>
<text text-anchor="middle" x="605.0024" y="-256.4834" font-family="Arial" font-size="10.00" fill="#0d1676">10494×</text>
</g>
<!-- 345 -->
<g id="node12" class="node">
<title>345</title>
<g id="a_node12"><a xlink:title="/usr/local/lib/python2.7/site&#45;packages/numpy/matrixlib/defmatrix.py">
<polygon fill="#0d1475" stroke="#0d1475" points="776.7324,-243.9824 655.625,-243.9824 655.625,-189.9902 776.7324,-189.9902 776.7324,-243.9824"/>
<text text-anchor="middle" x="716.1787" y="-231.9844" font-family="Arial" font-size="10.00" fill="#ffffff">defmatrix:348:__rmul__</text>
<text text-anchor="middle" x="716.1787" y="-220.4854" font-family="Arial" font-size="10.00" fill="#ffffff">1.73%</text>
<text text-anchor="middle" x="716.1787" y="-208.9863" font-family="Arial" font-size="10.00" fill="#ffffff">(0.02%)</text>
<text text-anchor="middle" x="716.1787" y="-197.4873" font-family="Arial" font-size="10.00" fill="#ffffff">9904×</text>
</a>
</g>
</g>
<!-- 104&#45;&gt;345 -->
<g id="edge10" class="edge">
<title>104&#45;&gt;345</title>
<path fill="none" stroke="#0d1475" stroke-width=".5" d="M624.8584,-284.759C641.06,-272.7351 660.1372,-258.5771 676.6539,-246.3193"/>
<polygon fill="#0d1475" stroke="#0d1475" stroke-width=".5" points="677.4132,-247.2814 679.4937,-244.2118 675.953,-245.314 677.4132,-247.2814"/>
<text text-anchor="middle" x="682.356" y="-267.9824" font-family="Arial" font-size="10.00" fill="#0d1475">1.73%</text>
<text text-anchor="middle" x="682.356" y="-256.4834" font-family="Arial" font-size="10.00" fill="#0d1475">9900×</text>
</g>
<!-- 570 -->
<g id="node13" class="node">
<title>570</title>
<g id="a_node13"><a xlink:title="~">
<polygon fill="#0d1976" stroke="#0d1976" points="985.0188,-243.9824 785.3386,-243.9824 785.3386,-189.9902 985.0188,-189.9902 985.0188,-243.9824"/>
<text text-anchor="middle" x="885.1787" y="-231.9844" font-family="Arial" font-size="10.00" fill="#ffffff">~:0:&lt;numpy.core.multiarray.concatenate&gt;</text>
<text text-anchor="middle" x="885.1787" y="-220.4854" font-family="Arial" font-size="10.00" fill="#ffffff">2.88%</text>
<text text-anchor="middle" x="885.1787" y="-208.9863" font-family="Arial" font-size="10.00" fill="#ffffff">(2.87%)</text>
<text text-anchor="middle" x="885.1787" y="-197.4873" font-family="Arial" font-size="10.00" fill="#ffffff">396×</text>
</a>
</g>
</g>
<!-- 104&#45;&gt;570 -->
<g id="edge11" class="edge">
<title>104&#45;&gt;570</title>
<path fill="none" stroke="#0d1976" stroke-width=".5" d="M655.2016,-290.5435C697.1377,-277.1304 751.6296,-259.7014 797.044,-245.1758"/>
<polygon fill="#0d1976" stroke="#0d1976" stroke-width=".5" points="797.6141,-246.2797 800.5746,-244.0466 796.8677,-243.9461 797.6141,-246.2797"/>
<text text-anchor="middle" x="786.356" y="-267.9824" font-family="Arial" font-size="10.00" fill="#0d1976">2.88%</text>
<text text-anchor="middle" x="786.356" y="-256.4834" font-family="Arial" font-size="10.00" fill="#0d1976">396×</text>
</g>
<!-- 439 -->
<g id="node14" class="node">
<title>439</title>
<g id="a_node14"><a xlink:title="~">
<polygon fill="#0d2c7c" stroke="#0d2c7c" points="412.7943,-148.9883 191.5631,-148.9883 191.5631,-94.9961 412.7943,-94.9961 412.7943,-148.9883"/>
<text text-anchor="middle" x="302.1787" y="-136.9902" font-family="Arial" font-size="10.00" fill="#ffffff">~:0:&lt;method &#39;item&#39; of &#39;numpy.ndarray&#39; objects&gt;</text>
<text text-anchor="middle" x="302.1787" y="-125.4912" font-family="Arial" font-size="10.00" fill="#ffffff">7.13%</text>
<text text-anchor="middle" x="302.1787" y="-113.9922" font-family="Arial" font-size="10.00" fill="#ffffff">(7.13%)</text>
<text text-anchor="middle" x="302.1787" y="-102.4932" font-family="Arial" font-size="10.00" fill="#ffffff">30116180×</text>
</a>
</g>
</g>
<!-- 177&#45;&gt;439 -->
<g id="edge12" class="edge">
<title>177&#45;&gt;439</title>
<path fill="none" stroke="#0d2c7c" stroke-width=".5" d="M302.1787,-189.7648C302.1787,-178.2378 302.1787,-164.7494 302.1787,-152.8542"/>
<polygon fill="#0d2c7c" stroke="#0d2c7c" stroke-width=".5" points="303.4038,-152.7176 302.1787,-149.2177 300.9538,-152.7177 303.4038,-152.7176"/>
<text text-anchor="middle" x="326.9736" y="-172.9883" font-family="Arial" font-size="10.00" fill="#0d2c7c">7.13%</text>
<text text-anchor="middle" x="326.9736" y="-161.4893" font-family="Arial" font-size="10.00" fill="#0d2c7c">30116180×</text>
</g>
<!-- 501 -->
<g id="node15" class="node">
<title>501</title>
<g id="a_node15"><a xlink:title="~">
<polygon fill="#0d1a77" stroke="#0d1a77" points="492.3929,-148.9883 421.9645,-148.9883 421.9645,-94.9961 492.3929,-94.9961 492.3929,-148.9883"/>
<text text-anchor="middle" x="457.1787" y="-136.9902" font-family="Arial" font-size="10.00" fill="#ffffff">~:0:&lt;range&gt;</text>
<text text-anchor="middle" x="457.1787" y="-125.4912" font-family="Arial" font-size="10.00" fill="#ffffff">3.11%</text>
<text text-anchor="middle" x="457.1787" y="-113.9922" font-family="Arial" font-size="10.00" fill="#ffffff">(3.11%)</text>
<text text-anchor="middle" x="457.1787" y="-102.4932" font-family="Arial" font-size="10.00" fill="#ffffff">2424088×</text>
</a>
</g>
</g>
<!-- 177&#45;&gt;501 -->
<g id="edge13" class="edge">
<title>177&#45;&gt;501</title>
<path fill="none" stroke="#0d1a77" stroke-width=".5" d="M349.2828,-189.9885C370.2451,-177.7556 395.1244,-162.9356 417.1787,-148.9902 417.7629,-148.6208 418.351,-148.2472 418.9421,-147.87"/>
<polygon fill="#0d1a77" stroke="#0d1a77" stroke-width=".5" points="419.6367,-148.8798 421.9191,-145.9572 418.3123,-146.8186 419.6367,-148.8798"/>
<text text-anchor="middle" x="424.564" y="-172.9883" font-family="Arial" font-size="10.00" fill="#0d1a77">3.09%</text>
<text text-anchor="middle" x="424.564" y="-161.4893" font-family="Arial" font-size="10.00" fill="#0d1a77">2413698×</text>
</g>
<!-- 583 -->
<g id="node16" class="node">
<title>583</title>
<g id="a_node16"><a xlink:title="~">
<polygon fill="#0d0f73" stroke="#0d0f73" points="182.5365,-148.9883 -.1791,-148.9883 -.1791,-94.9961 182.5365,-94.9961 182.5365,-148.9883"/>
<text text-anchor="middle" x="91.1787" y="-136.9902" font-family="Arial" font-size="10.00" fill="#ffffff">~:0:&lt;method &#39;append&#39; of &#39;list&#39; objects&gt;</text>
<text text-anchor="middle" x="91.1787" y="-125.4912" font-family="Arial" font-size="10.00" fill="#ffffff">0.53%</text>
<text text-anchor="middle" x="91.1787" y="-113.9922" font-family="Arial" font-size="10.00" fill="#ffffff">(0.53%)</text>
<text text-anchor="middle" x="91.1787" y="-102.4932" font-family="Arial" font-size="10.00" fill="#ffffff">2874333×</text>
</a>
</g>
</g>
<!-- 177&#45;&gt;583 -->
<g id="edge14" class="edge">
<title>177&#45;&gt;583</title>
<path fill="none" stroke="#0d0f73" stroke-width=".5" d="M241.997,-189.8919C214.7243,-177.6135 182.463,-163.0892 154.7916,-150.6313"/>
<polygon fill="#0d0f73" stroke="#0d0f73" stroke-width=".5" points="155.1348,-149.4424 151.4404,-149.1226 154.129,-151.6765 155.1348,-149.4424"/>
<text text-anchor="middle" x="244.564" y="-172.9883" font-family="Arial" font-size="10.00" fill="#0d0f73">0.46%</text>
<text text-anchor="middle" x="244.564" y="-161.4893" font-family="Arial" font-size="10.00" fill="#0d0f73">2413496×</text>
</g>
<!-- 343 -->
<g id="node19" class="node">
<title>343</title>
<g id="a_node19"><a xlink:title="~">
<polygon fill="#0d1d78" stroke="#0d1d78" points="709.4328,-148.9883 550.9246,-148.9883 550.9246,-94.9961 709.4328,-94.9961 709.4328,-148.9883"/>
<text text-anchor="middle" x="630.1787" y="-136.9902" font-family="Arial" font-size="10.00" fill="#ffffff">~:0:&lt;numpy.core.multiarray.dot&gt;</text>
<text text-anchor="middle" x="630.1787" y="-125.4912" font-family="Arial" font-size="10.00" fill="#ffffff">3.78%</text>
<text text-anchor="middle" x="630.1787" y="-113.9922" font-family="Arial" font-size="10.00" fill="#ffffff">(3.74%)</text>
<text text-anchor="middle" x="630.1787" y="-102.4932" font-family="Arial" font-size="10.00" fill="#ffffff">20802×</text>
</a>
</g>
</g>
<!-- 344&#45;&gt;343 -->
<g id="edge19" class="edge">
<title>344&#45;&gt;343</title>
<path fill="none" stroke="#0d1575" stroke-width=".5" d="M598.9699,-189.8096C603.0753,-179.752 607.8851,-168.2934 612.5313,-157.9902 613.3539,-156.1661 614.2143,-154.2976 615.0936,-152.4178"/>
<polygon fill="#0d1575" stroke="#0d1575" stroke-width=".5" points="616.3069,-152.7171 616.6929,-149.029 614.0912,-151.6714 616.3069,-152.7171"/>
<text text-anchor="middle" x="630.0024" y="-172.9883" font-family="Arial" font-size="10.00" fill="#0d1575">2.06%</text>
<text text-anchor="middle" x="630.0024" y="-161.4893" font-family="Arial" font-size="10.00" fill="#0d1575">10498×</text>
</g>
<!-- 345&#45;&gt;343 -->
<g id="edge20" class="edge">
<title>345&#45;&gt;343</title>
<path fill="none" stroke="#0d1475" stroke-width=".5" d="M691.5346,-189.7648C680.829,-177.9397 668.2548,-164.0504 657.2861,-151.9345"/>
<polygon fill="#0d1475" stroke="#0d1475" stroke-width=".5" points="658.0836,-150.9902 654.8265,-149.2177 656.2673,-152.6345 658.0836,-150.9902"/>
<text text-anchor="middle" x="698.356" y="-172.9883" font-family="Arial" font-size="10.00" fill="#0d1475">1.70%</text>
<text text-anchor="middle" x="698.356" y="-161.4893" font-family="Arial" font-size="10.00" fill="#0d1475">9904×</text>
</g>
<!-- 178&#45;&gt;177 -->
<g id="edge15" class="edge">
<title>178&#45;&gt;177</title>
<path fill="none" stroke="#0d1074" stroke-width=".5" d="M358.6741,-284.965C356.0066,-281.9505 353.3463,-278.9117 350.8242,-275.9824 342.8176,-266.6831 334.2506,-256.4074 326.5719,-247.073"/>
<polygon fill="#0d1074" stroke="#0d1074" stroke-width=".5" points="327.3871,-246.1355 324.2189,-244.2084 325.4939,-247.6906 327.3871,-246.1355"/>
<text text-anchor="middle" x="365.356" y="-267.9824" font-family="Arial" font-size="10.00" fill="#0d1074">0.83%</text>
<text text-anchor="middle" x="365.356" y="-256.4834" font-family="Arial" font-size="10.00" fill="#0d1074">4×</text>
</g>
</g>
</svg>
