<?xml version="1.0" encoding="UTF-8" standalone="no"?>
<!DOCTYPE svg PUBLIC "-//W3C//DTD SVG 1.1//EN"
 "http://www.w3.org/Graphics/SVG/1.1/DTD/svg11.dtd">
<!-- Generated by graphviz version 2.40.1 (20161225.0304)
 -->
<!-- Title: %3 Pages: 1 -->
<svg width="332pt" height="537pt"
 viewBox="0.00 0.00 331.79 536.97" xmlns="http://www.w3.org/2000/svg" xmlns:xlink="http://www.w3.org/1999/xlink">
<g id="graph0" class="graph" transform="scale(1 1) rotate(0) translate(4 532.9668)">
<title>%3</title>
<polygon fill="#ffffff" stroke="transparent" points="-4,4 -4,-532.9668 327.7866,-532.9668 327.7866,4 -4,4"/>
<!-- 55 -->
<g id="node1" class="node">
<title>55</title>
<g id="a_node1"><a xlink:title="crsmatrix.py">
<polygon fill="#0d1977" stroke="#0d1977" points="139.5395,-433.9707 -.1802,-433.9707 -.1802,-379.9785 139.5395,-379.9785 139.5395,-433.9707"/>
<text text-anchor="middle" x="69.6797" y="-421.9727" font-family="Arial" font-size="10.00" fill="#ffffff">crsmatrix:104:from_mm_file</text>
<text text-anchor="middle" x="69.6797" y="-410.4736" font-family="Arial" font-size="10.00" fill="#ffffff">3.01%</text>
<text text-anchor="middle" x="69.6797" y="-398.9746" font-family="Arial" font-size="10.00" fill="#ffffff">(2.04%)</text>
<text text-anchor="middle" x="69.6797" y="-387.4756" font-family="Arial" font-size="10.00" fill="#ffffff">1×</text>
</a>
</g>
</g>
<!-- 56 -->
<g id="node2" class="node">
<title>56</title>
<g id="a_node2"><a xlink:title="gmres_example.py">
<polygon fill="#ff0000" stroke="#ff0000" points="161.9182,-528.9648 19.4412,-528.9648 19.4412,-474.9727 161.9182,-474.9727 161.9182,-528.9648"/>
<text text-anchor="middle" x="90.6797" y="-516.9668" font-family="Arial" font-size="10.00" fill="#ffffff">gmres_example:1:&lt;module&gt;</text>
<text text-anchor="middle" x="90.6797" y="-505.4678" font-family="Arial" font-size="10.00" fill="#ffffff">100.00%</text>
<text text-anchor="middle" x="90.6797" y="-493.9688" font-family="Arial" font-size="10.00" fill="#ffffff">(0.06%)</text>
<text text-anchor="middle" x="90.6797" y="-482.4697" font-family="Arial" font-size="10.00" fill="#ffffff">1×</text>
</a>
</g>
</g>
<!-- 56&#45;&gt;55 -->
<g id="edge1" class="edge">
<title>56&#45;&gt;55</title>
<path fill="none" stroke="#0d1977" stroke-width=".5" d="M84.6619,-474.7472C82.1137,-463.2202 79.1319,-449.7318 76.5022,-437.8366"/>
<polygon fill="#0d1977" stroke="#0d1977" stroke-width=".5" points="77.65,-437.3531 75.6983,-434.2001 75.2578,-437.882 77.65,-437.3531"/>
<text text-anchor="middle" x="96.8569" y="-457.9707" font-family="Arial" font-size="10.00" fill="#0d1977">3.01%</text>
<text text-anchor="middle" x="96.8569" y="-446.4717" font-family="Arial" font-size="10.00" fill="#0d1977">1×</text>
</g>
<!-- 322 -->
<g id="node3" class="node">
<title>322</title>
<g id="a_node3"><a xlink:title="gmrescrs.py">
<polygon fill="#fa2401" stroke="#fa2401" points="245.3175,-433.9707 148.0419,-433.9707 148.0419,-379.9785 245.3175,-379.9785 245.3175,-433.9707"/>
<text text-anchor="middle" x="196.6797" y="-421.9727" font-family="Arial" font-size="10.00" fill="#ffffff">gmrescrs:22:solve</text>
<text text-anchor="middle" x="196.6797" y="-410.4736" font-family="Arial" font-size="10.00" fill="#ffffff">96.50%</text>
<text text-anchor="middle" x="196.6797" y="-398.9746" font-family="Arial" font-size="10.00" fill="#ffffff">(0.15%)</text>
<text text-anchor="middle" x="196.6797" y="-387.4756" font-family="Arial" font-size="10.00" fill="#ffffff">1×</text>
</a>
</g>
</g>
<!-- 56&#45;&gt;322 -->
<g id="edge2" class="edge">
<title>56&#45;&gt;322</title>
<path fill="none" stroke="#fa2401" stroke-width="3.86" d="M121.055,-474.7472C132.8087,-464.2139 146.39,-452.0428 158.7722,-440.9462"/>
<polygon fill="#fa2401" stroke="#fa2401" stroke-width="3.86" points="161.2909,-443.2949 166.2999,-434.2001 156.7126,-438.1862 161.2909,-443.2949"/>
<text text-anchor="middle" x="173.6377" y="-457.9707" font-family="Arial" font-size="10.00" fill="#fa2401">96.50%</text>
<text text-anchor="middle" x="173.6377" y="-446.4717" font-family="Arial" font-size="10.00" fill="#fa2401">1×</text>
</g>
<!-- 102 -->
<g id="node5" class="node">
<title>102</title>
<g id="a_node5"><a xlink:title="gmrescrs.py">
<polygon fill="#f15a02" stroke="#f15a02" points="182.5118,-338.9766 48.8476,-338.9766 48.8476,-284.9844 182.5118,-284.9844 182.5118,-338.9766"/>
<text text-anchor="middle" x="115.6797" y="-326.9785" font-family="Arial" font-size="10.00" fill="#ffffff">gmrescrs:66:next_iteration</text>
<text text-anchor="middle" x="115.6797" y="-315.4795" font-family="Arial" font-size="10.00" fill="#ffffff">90.76%</text>
<text text-anchor="middle" x="115.6797" y="-303.9805" font-family="Arial" font-size="10.00" fill="#ffffff">(0.19%)</text>
<text text-anchor="middle" x="115.6797" y="-292.4814" font-family="Arial" font-size="10.00" fill="#ffffff">48×</text>
</a>
</g>
</g>
<!-- 322&#45;&gt;102 -->
<g id="edge9" class="edge">
<title>322&#45;&gt;102</title>
<path fill="none" stroke="#f15a02" stroke-width="3.63" d="M173.4683,-379.7531C164.6562,-369.4185 154.4997,-357.5074 145.1833,-346.5813"/>
<polygon fill="#f15a02" stroke="#f15a02" stroke-width="3.63" points="147.5885,-344.2774 138.8944,-339.206 142.5283,-348.5922 147.5885,-344.2774"/>
<text text-anchor="middle" x="183.6377" y="-362.9766" font-family="Arial" font-size="10.00" fill="#f15a02">90.76%</text>
<text text-anchor="middle" x="183.6377" y="-351.4775" font-family="Arial" font-size="10.00" fill="#f15a02">48×</text>
</g>
<!-- 177 -->
<g id="node9" class="node">
<title>177</title>
<g id="a_node9"><a xlink:title="gmrescrs.py">
<polygon fill="#0d257a" stroke="#0d257a" points="322.2188,-338.9766 191.1406,-338.9766 191.1406,-284.9844 322.2188,-284.9844 322.2188,-338.9766"/>
<text text-anchor="middle" x="256.6797" y="-326.9785" font-family="Arial" font-size="10.00" fill="#ffffff">gmrescrs:51:first_iteration</text>
<text text-anchor="middle" x="256.6797" y="-315.4795" font-family="Arial" font-size="10.00" fill="#ffffff">5.58%</text>
<text text-anchor="middle" x="256.6797" y="-303.9805" font-family="Arial" font-size="10.00" fill="#ffffff">(0.00%)</text>
<text text-anchor="middle" x="256.6797" y="-292.4814" font-family="Arial" font-size="10.00" fill="#ffffff">2×</text>
</a>
</g>
</g>
<!-- 322&#45;&gt;177 -->
<g id="edge10" class="edge">
<title>322&#45;&gt;177</title>
<path fill="none" stroke="#0d257a" stroke-width=".5" d="M213.8733,-379.7531C221.2795,-368.0273 229.9676,-354.2719 237.5744,-342.2286"/>
<polygon fill="#0d257a" stroke="#0d257a" stroke-width=".5" points="238.6502,-342.8193 239.4836,-339.206 236.5788,-341.5109 238.6502,-342.8193"/>
<text text-anchor="middle" x="248.8569" y="-362.9766" font-family="Arial" font-size="10.00" fill="#0d257a">5.58%</text>
<text text-anchor="middle" x="248.8569" y="-351.4775" font-family="Arial" font-size="10.00" fill="#0d257a">2×</text>
</g>
<!-- 68 -->
<g id="node4" class="node">
<title>68</title>
<g id="a_node4"><a xlink:title="/usr/local/lib/python2.7/site&#45;packages/numpy/linalg/linalg.py">
<polygon fill="#0d1375" stroke="#0d1375" points="151.1638,-243.9824 80.1956,-243.9824 80.1956,-189.9902 151.1638,-189.9902 151.1638,-243.9824"/>
<text text-anchor="middle" x="115.6797" y="-231.9844" font-family="Arial" font-size="10.00" fill="#ffffff">linalg:617:qr</text>
<text text-anchor="middle" x="115.6797" y="-220.4854" font-family="Arial" font-size="10.00" fill="#ffffff">1.56%</text>
<text text-anchor="middle" x="115.6797" y="-208.9863" font-family="Arial" font-size="10.00" fill="#ffffff">(0.25%)</text>
<text text-anchor="middle" x="115.6797" y="-197.4873" font-family="Arial" font-size="10.00" fill="#ffffff">48×</text>
</a>
</g>
</g>
<!-- 102&#45;&gt;68 -->
<g id="edge3" class="edge">
<title>102&#45;&gt;68</title>
<path fill="none" stroke="#0d1375" stroke-width=".5" d="M115.6797,-284.759C115.6797,-273.2319 115.6797,-259.7435 115.6797,-247.8483"/>
<polygon fill="#0d1375" stroke="#0d1375" stroke-width=".5" points="116.9048,-247.7118 115.6797,-244.2118 114.4548,-247.7118 116.9048,-247.7118"/>
<text text-anchor="middle" x="129.8569" y="-267.9824" font-family="Arial" font-size="10.00" fill="#0d1375">1.56%</text>
<text text-anchor="middle" x="129.8569" y="-256.4834" font-family="Arial" font-size="10.00" fill="#0d1375">48×</text>
</g>
<!-- 176 -->
<g id="node6" class="node">
<title>176</title>
<g id="a_node6"><a xlink:title="crsmatrix.py">
<polygon fill="#f54002" stroke="#f54002" points="320.5591,-243.9824 170.8003,-243.9824 170.8003,-189.9902 320.5591,-189.9902 320.5591,-243.9824"/>
<text text-anchor="middle" x="245.6797" y="-231.9844" font-family="Arial" font-size="10.00" fill="#ffffff">crsmatrix:162:mult_left_vector</text>
<text text-anchor="middle" x="245.6797" y="-220.4854" font-family="Arial" font-size="10.00" fill="#ffffff">93.62%</text>
<text text-anchor="middle" x="245.6797" y="-208.9863" font-family="Arial" font-size="10.00" fill="#ffffff">(36.81%)</text>
<text text-anchor="middle" x="245.6797" y="-197.4873" font-family="Arial" font-size="10.00" fill="#ffffff">52×</text>
</a>
</g>
</g>
<!-- 102&#45;&gt;176 -->
<g id="edge4" class="edge">
<title>102&#45;&gt;176</title>
<path fill="none" stroke="#ed7303" stroke-width="3.52" d="M152.9325,-284.759C167.7553,-273.9275 184.9482,-261.3643 200.4751,-250.0184"/>
<polygon fill="#ed7303" stroke="#ed7303" stroke-width="3.52" points="202.7729,-252.4142 208.4215,-244.2118 198.8907,-247.1014 202.7729,-252.4142"/>
<text text-anchor="middle" x="213.6377" y="-267.9824" font-family="Arial" font-size="10.00" fill="#ed7303">88.05%</text>
<text text-anchor="middle" x="213.6377" y="-256.4834" font-family="Arial" font-size="10.00" fill="#ed7303">48×</text>
</g>
<!-- 182 -->
<g id="node7" class="node">
<title>182</title>
<g id="a_node7"><a xlink:title="/usr/local/lib/python2.7/site&#45;packages/numpy/matrixlib/defmatrix.py">
<polygon fill="#2abc09" stroke="#2abc09" points="245.0836,-148.9883 110.2758,-148.9883 110.2758,-94.9961 245.0836,-94.9961 245.0836,-148.9883"/>
<text text-anchor="middle" x="177.6797" y="-136.9902" font-family="Arial" font-size="10.00" fill="#ffffff">defmatrix:314:__getitem__</text>
<text text-anchor="middle" x="177.6797" y="-125.4912" font-family="Arial" font-size="10.00" fill="#ffffff">54.62%</text>
<text text-anchor="middle" x="177.6797" y="-113.9922" font-family="Arial" font-size="10.00" fill="#ffffff">(41.23%)</text>
<text text-anchor="middle" x="177.6797" y="-102.4932" font-family="Arial" font-size="10.00" fill="#ffffff">7611334×</text>
</a>
</g>
</g>
<!-- 176&#45;&gt;182 -->
<g id="edge5" class="edge">
<title>176&#45;&gt;182</title>
<path fill="none" stroke="#29bc09" stroke-width="2.18" d="M222.5881,-189.7322C220.2848,-186.8169 218.0201,-183.8654 215.9092,-180.9883 209.9834,-172.9115 203.9275,-163.9493 198.4343,-155.4997"/>
<polygon fill="#29bc09" stroke="#29bc09" stroke-width="2.18" points="200.5376,-153.9821 194.3546,-149.1613 196.1818,-156.7856 200.5376,-153.9821"/>
<text text-anchor="middle" x="239.0649" y="-172.9883" font-family="Arial" font-size="10.00" fill="#29bc09">54.52%</text>
<text text-anchor="middle" x="239.0649" y="-161.4893" font-family="Arial" font-size="10.00" fill="#29bc09">7603590×</text>
</g>
<!-- 501 -->
<g id="node8" class="node">
<title>501</title>
<g id="a_node8"><a xlink:title="~">
<polygon fill="#0d1575" stroke="#0d1575" points="323.8939,-148.9883 253.4655,-148.9883 253.4655,-94.9961 323.8939,-94.9961 323.8939,-148.9883"/>
<text text-anchor="middle" x="288.6797" y="-136.9902" font-family="Arial" font-size="10.00" fill="#ffffff">~:0:&lt;range&gt;</text>
<text text-anchor="middle" x="288.6797" y="-125.4912" font-family="Arial" font-size="10.00" fill="#ffffff">1.90%</text>
<text text-anchor="middle" x="288.6797" y="-113.9922" font-family="Arial" font-size="10.00" fill="#ffffff">(1.90%)</text>
<text text-anchor="middle" x="288.6797" y="-102.4932" font-family="Arial" font-size="10.00" fill="#ffffff">622138×</text>
</a>
</g>
</g>
<!-- 176&#45;&gt;501 -->
<g id="edge6" class="edge">
<title>176&#45;&gt;501</title>
<path fill="none" stroke="#0d1575" stroke-width=".5" d="M258.0018,-189.7648C263.2646,-178.1384 269.4306,-164.5166 274.8488,-152.5469"/>
<polygon fill="#0d1575" stroke="#0d1575" stroke-width=".5" points="276.0284,-152.9114 276.3558,-149.2177 273.7964,-151.901 276.0284,-152.9114"/>
<text text-anchor="middle" x="292.2842" y="-172.9883" font-family="Arial" font-size="10.00" fill="#0d1575">1.90%</text>
<text text-anchor="middle" x="292.2842" y="-161.4893" font-family="Arial" font-size="10.00" fill="#0d1575">621348×</text>
</g>
<!-- 547 -->
<g id="node10" class="node">
<title>547</title>
<g id="a_node10"><a xlink:title="~">
<polygon fill="#0d4d84" stroke="#0d4d84" points="222.2852,-53.9941 133.0742,-53.9941 133.0742,-.002 222.2852,-.002 222.2852,-53.9941"/>
<text text-anchor="middle" x="177.6797" y="-41.9961" font-family="Arial" font-size="10.00" fill="#ffffff">~:0:&lt;isinstance&gt;</text>
<text text-anchor="middle" x="177.6797" y="-30.4971" font-family="Arial" font-size="10.00" fill="#ffffff">13.39%</text>
<text text-anchor="middle" x="177.6797" y="-18.998" font-family="Arial" font-size="10.00" fill="#ffffff">(13.39%)</text>
<text text-anchor="middle" x="177.6797" y="-7.499" font-family="Arial" font-size="10.00" fill="#ffffff">7619654×</text>
</a>
</g>
</g>
<!-- 182&#45;&gt;547 -->
<g id="edge8" class="edge">
<title>182&#45;&gt;547</title>
<path fill="none" stroke="#0d4c84" stroke-width=".54" d="M177.6797,-94.7707C177.6797,-83.343 177.6797,-69.9876 177.6797,-58.168"/>
<polygon fill="#0d4c84" stroke="#0d4c84" stroke-width=".54" points="178.9748,-57.9235 177.6797,-54.2235 176.3848,-57.9236 178.9748,-57.9235"/>
<text text-anchor="middle" x="199.6938" y="-77.9941" font-family="Arial" font-size="10.00" fill="#0d4c84">13.38%</text>
<text text-anchor="middle" x="199.6938" y="-66.4951" font-family="Arial" font-size="10.00" fill="#0d4c84">7611286×</text>
</g>
<!-- 177&#45;&gt;176 -->
<g id="edge7" class="edge">
<title>177&#45;&gt;176</title>
<path fill="none" stroke="#0d257a" stroke-width=".5" d="M253.5275,-284.759C252.1927,-273.2319 250.6308,-259.7435 249.2534,-247.8483"/>
<polygon fill="#0d257a" stroke="#0d257a" stroke-width=".5" points="250.4519,-247.5476 248.8323,-244.2118 248.0181,-247.8295 250.4519,-247.5476"/>
<text text-anchor="middle" x="266.8569" y="-267.9824" font-family="Arial" font-size="10.00" fill="#0d257a">5.58%</text>
<text text-anchor="middle" x="266.8569" y="-256.4834" font-family="Arial" font-size="10.00" fill="#0d257a">4×</text>
</g>
</g>
</svg>
